<?xml version="1.0" encoding="utf-8" ?>
<svg baseProfile="full" height="200mm" version="1.1" viewBox="0,0,200,200" width="200mm" xmlns="http://www.w3.org/2000/svg" xmlns:ev="http://www.w3.org/2001/xml-events" xmlns:xlink="http://www.w3.org/1999/xlink"><defs /><rect fill="#1a1a1a" height="200" width="200" x="0" y="0" /><text alignment-baseline="middle" fill="#e1ed5e" style="dominant-baseline: central; font-size:9.0px; font-family:Arial;" text-anchor="middle" x="100.0" y="100.0">2023</text><line stroke="#e1ed5e" stroke-width="0.3" x1="100.0" x2="100.0" y1="15.0" y2="10.0" /><path d="M 100.0 14.0 a86.0,86.0 0 0,1 42.46469731375804,11.215312516191453" fill="none" id="id25" stroke="none" /><text fill="#e1ed5e" style="font-size:6.75px; font-family:Arial;" text-anchor="middle"><textPath startOffset="22.20632615414155" xlink:href="#id25">January</textPath></text><path d="M 101.08401301168833 79.027996857942 l 0.7941780630759743 -15.364672429754549 a36.385183706070286,36.385183706070286 0 0,0 0.625197863861559,0.0377136424894372 l -1.0585379757771451 15.348725517884807" fill="red" stroke="none" /><path d="M 103.2404852339499 79.25152402106235 l 4.439490652981289 -28.425577813796167 a49.77016773162939,49.77016773162939 0 0,0 0.8453126302591235,0.13948382691086159 l -4.928132489379288 28.34494772394568" fill="red" stroke="none" /><path d="M 109.41281617654863 81.2277094730956 l 13.806278199847826 -27.534317105706123 a51.80181709265176,51.80181709265176 0 0,0 0.7936519701622021,0.406539364726842 l -14.278190657598785 27.29258521566678" fill="red" stroke="none" /><line stroke="#e1ed5e" stroke-width="0.3" x1="143.23703022742887" x2="145.7803849466894" y1="26.81831364943548" y2="22.513508569990506" /><path d="M 143.74570117128098 25.957352633546492 a86.0,86.0 0 0,1 28.547481713284135,27.462654790039103" fill="none" id="id26" stroke="none" /><text fill="#e1ed5e" style="font-size:6.75px; font-family:Arial;" text-anchor="middle"><textPath startOffset="19.985693538727396" xlink:href="#id26">February</textPath></text><line stroke="#e1ed5e" stroke-width="0.3" x1="172.23445277983987" x2="176.4835382374775" y1="55.19839476539836" y2="52.563006222186495" /><path d="M 173.08426987136738 54.67131705675599 a86.0,86.0 0 0,1 12.851231095245387,41.99856678651699" fill="none" id="id27" stroke="none" /><text fill="#e1ed5e" style="font-size:6.75px; font-family:Arial;" text-anchor="middle"><textPath startOffset="22.20632615414155" xlink:href="#id27">March</textPath></text><path d="M 117.84615892207809 88.93136811851018 l 17.59671181254425 -10.913918576437046 a41.706469648562305,41.706469648562305 0 0,0 0.37314222648666473,0.6133477092017509 l -17.78196983731714 10.609403094028215" fill="red" stroke="none" /><path d="M 118.21658344932153 89.55222093294921 l 12.571188578445533 -7.209968940840165 a35.49201277955272,35.49201277955272 0 0,0 0.29938756471661887,0.532577071068671 l -12.693433784454587 6.9925083598367" fill="red" stroke="none" /><path d="M 118.3937258080291 89.86733742301442 l 14.858589807584215 -8.185240905590097 a37.963957667731634,37.963957667731634 0 0,0 0.3103859072934563,0.575097946765093 l -14.997283814096136 7.928261975492545" fill="red" stroke="none" /><path d="M 120.87857604477298 97.74499172005257 l 19.51112937091406 -2.107316044359819 a40.62460063897764,40.62460063897764 0 0,0 0.06910607156361194,0.6958887097714526 l -19.5445125681599 1.7711518038839311" fill="red" stroke="none" /><line stroke="#e1ed5e" stroke-width="0.3" x1="184.98032266829074" x2="189.97916517819016" y1="98.17113171792111" y2="98.06355123074" /><path d="M 185.9800911702706 98.14961562048488 a86.0,86.0 0 0,1 -9.607161424134198,41.387399972396054" fill="none" id="id28" stroke="none" /><text fill="#e1ed5e" style="font-size:6.75px; font-family:Arial;" text-anchor="middle"><textPath startOffset="21.466115282336823" xlink:href="#id28">April</textPath></text><path d="M 120.23288151984713 105.62410040840565 l 34.397514628589946 9.561419903587415 a56.70167731629393,56.70167731629393 0 0,0 -0.2694878522416461,0.9381225671379877 l -34.227834139462196 -10.152099946229985" fill="red" stroke="none" /><path d="M 120.02730092923936 106.31721596034902 l 36.24949466315698 11.43418611672997 a59.0100838658147,59.0100838658147 0 0,0 -0.3138992207615544,0.9660824640699834 l -36.04730319137918 -12.056467480777748" fill="red" stroke="none" /><path d="M 119.12269723197855 108.67885076344098 l 38.34085521291864 17.401026460804896 a63.10483226837061,63.10483226837061 0 0,0 -0.4574360605386138,0.9852765789778112 l -38.03564453554019 -18.058423107061536" fill="red" stroke="none" /><line stroke="#e1ed5e" stroke-width="0.3" x1="174.80103733775053" x2="179.2010983576182" y1="140.37084112569926" y2="142.7455964860345" /><path d="M 175.68104954172406 140.8457921977663 a86.0,86.0 0 0,1 -30.038265399797805,32.042727171017184" fill="none" id="id29" stroke="none" /><text fill="#e1ed5e" style="font-size:6.75px; font-family:Arial;" text-anchor="middle"><textPath startOffset="22.206326154141568" xlink:href="#id29">May</textPath></text><path d="M 117.94076556474637 110.91462005526583 l 26.438268743575918 16.084244410515534 a51.9464856230032,51.9464856230032 0 0,0 -0.4713163026743762,0.7599119502889361 l -26.15748780123358 -16.536952692169745" fill="red" stroke="none" /><path d="M 117.14729908036423 112.12312394758627 l 33.38895506832505 23.60595910041684 a61.89087460063898,61.89087460063898 0 0,0 -0.6225049230096427,0.86460489224122 l -32.97767035293981 -24.177197598109192" fill="red" stroke="none" /><path d="M 116.0416608686014 113.55231037782055 l 28.51174588486842 24.087283281345996 a58.32448083067093,58.32448083067093 0 0,0 -0.6545047991972855,0.7613369464381604 l -28.092898576100353 -24.574497326945682" fill="red" stroke="none" /><path d="M 115.32070863581623 114.36230785411682 l 22.613953321875726 21.199317024287453 a51.99680511182109,51.99680511182109 0 0,0 -0.6177553440297205,0.6477140084618435 l -22.24569142646704 -21.585438149331804" fill="red" stroke="none" /><path d="M 113.75828350139079 115.86535959552629 l 26.61683899824774 30.6931981711774 a61.62669728434505,61.62669728434505 0 0,0 -0.8074110470218501,0.6880932106806035 l -26.08456247464884 -31.146815772080952" fill="red" stroke="none" /><line stroke="#e1ed5e" stroke-width="0.3" x1="143.8653032363475" x2="146.44561519142675" y1="172.8068346515853" y2="177.08958963109032" /><path d="M 144.38136562736335 173.6633856474863 a86.0,86.0 0 0,1 -40.68145358897372,12.25698825130547" fill="none" id="id30" stroke="none" /><text fill="#e1ed5e" style="font-size:6.75px; font-family:Arial;" text-anchor="middle"><textPath startOffset="21.466115282336833" xlink:href="#id30">June</textPath></text><path d="M 102.34483914955558 120.86867818915974 l 3.2082343955181494 28.552752186925428 a49.73242811501598,49.73242811501598 0 0,0 -0.8515314305626104,0.08826471447977344 l -2.716270368349936 -28.60374626986096" fill="red" stroke="none" /><path d="M 101.26447882468166 120.96189622390904 l 2.1644857676884097 35.88176025947688 a56.94698482428115,56.94698482428115 0 0,0 -0.9789781423543811,0.05060198767290679 l -1.546519556920549 -35.91370205391198" fill="red" stroke="none" /><line stroke="#e1ed5e" stroke-width="0.3" x1="102.19456741930631" x2="102.32365962044197" y1="184.97166512339345" y2="189.96999836594603" /><path d="M 102.22038585953345 185.97133177190398 a86.0,86.0 0 0,1 -42.740103519485714,-10.115201625700543" fill="none" id="id31" stroke="none" /><text fill="#e1ed5e" style="font-size:6.75px; font-family:Arial;" text-anchor="middle"><textPath startOffset="22.20632615414155" xlink:href="#id31">July</textPath></text><path d="M 93.08242187328487 119.8279376855182 l -9.379755245499013 26.885305681611676 a49.47454073482428,49.47454073482428 0 0,0 -0.8016770694708806,-0.28745287480831827 l 9.841151875599621 -26.7198652657634" fill="red" stroke="none" /><line stroke="#e1ed5e" stroke-width="0.3" x1="58.666819895761336" x2="56.23545636021788" y1="174.27360380694188" y2="178.64263932499728" /><path d="M 58.180547188652646 175.14741091055294 a86.0,86.0 0 0,1 -31.652253787137756,-30.449443065178592" fill="none" id="id32" stroke="none" /><text fill="#e1ed5e" style="font-size:6.75px; font-family:Arial;" text-anchor="middle"><textPath startOffset="22.20632615414155" xlink:href="#id32">August</textPath></text><path d="M 89.7882731507175 118.34994917583269 l -4.768395215065318 8.568561531087212 a30.80601038338658,30.80601038338658 0 0,0 -0.46113844525026976,-0.26184644418724595 l 4.915182427236795 -8.485211921105334" fill="red" stroke="none" /><path d="M 86.51685102203217 116.09983520530335 l -25.668598713247874 30.650125568562718 a60.9788338658147,60.9788338658147 0 0,0 -0.7989229711694176,-0.6808594882942971 l 26.19238716099435 -30.20374169004547" fill="red" stroke="none" /><path d="M 85.70375840098266 115.38237550388516 l -31.729777430726372 34.14039611135854 a67.60842651757189,67.60842651757189 0 0,0 -0.8456338542565687,-0.7995995910034736 l 32.31274711937375 -33.589161883609144" fill="red" stroke="none" /><path d="M 85.18274418774928 114.88116024355367 l -33.258940212761665 33.40238065051651 a68.13678115015975,68.13678115015975 0 0,0 -0.8239987786486902,-0.8347064124017932 l 33.82897961646589 -32.82493374413406" fill="red" stroke="none" /><path d="M 84.19399662182784 113.82643327865904 l -34.90545015193592 30.533833635249515 a67.37569888178913,67.37569888178913 0 0,0 -0.7560756244951028,-0.8794867630235845 l 35.42586828600181 -29.9284697730644" fill="red" stroke="none" /><path d="M 83.72743513129214 113.27417163493432 l -36.174613554976936 29.509056072628557 a67.68390575079871,67.68390575079871 0 0,0 -0.7286723205915514,-0.9091307584291756 l 36.67720378762335 -28.881997480621123" fill="red" stroke="none" /><path d="M 83.28015986056508 112.70617746262583 l -19.40576493819199 14.747335563401093 a45.37350239616613,45.37350239616613 0 0,0 -0.46721469922640413,-0.6259104407487136 l 19.656740904113477 -14.411112243143073" fill="red" stroke="none" /><path d="M 82.6465618267979 111.8261652097733 l -24.834682785011864 16.924545938187936 a51.05331469648562,51.05331469648562 0 0,0 -0.4886456053563014,-0.7304588797012984 l 25.122331495778898 -16.494550144280815" fill="red" stroke="none" /><path d="M 82.44556493220864 111.52570212397912 l -33.837612685283894 22.21673570758936 a61.47922155551119,61.47922155551119 0 0,0 -0.5732063135206759,-0.8896289278268357 l 34.21502386218162 -21.630985179841076" fill="red" stroke="none" /><path d="M 82.05923443525364 110.91462005526583 l -47.0357355090074 28.6151212582354 a76.05620382388179,76.05620382388179 0 0,0 -0.6708125461893416,-1.1243204124789052 l 47.52132893089498 -27.801238751870383" fill="red" stroke="none" /><line stroke="#e1ed5e" stroke-width="0.3" x1="26.63291911575756" x2="22.317208475507996" y1="142.92168965132927" y2="145.44649492493687" /><path d="M 25.769776987707644 143.4266507060508 a86.0,86.0 0 0,1 -11.730757126820373,-40.83630448921669" fill="none" id="id33" stroke="none" /><text fill="#e1ed5e" style="font-size:6.75px; font-family:Arial;" text-anchor="middle"><textPath startOffset="21.46611528233685" xlink:href="#id33">September</textPath></text><path d="M 81.18737489456691 109.33194174019688 l -43.77947576342162 21.716667129172922 a69.86978749001597,69.86978749001597 0 0,0 -0.5251770674438414,-1.082020311243418 l 44.146806087480186 -20.95985786196422" fill="red" stroke="none" /><path d="M 80.87730276802145 108.67885076344099 l -49.951278351442554 22.670425881674454 a75.85506739217251,75.85506739217251 0 0,0 -0.5293922092682126,-1.1936396764381938 l 50.33411164544205 -21.807237868743567" fill="red" stroke="none" /><path d="M 80.32549172779594 107.34259656027581 l -53.036314232179464 19.793341366558195 a77.6094249201278,77.6094249201278 0 0,0 -0.4563276711891587,-1.2556177661762749 l 53.36916616437385 -18.877475803375802" fill="red" stroke="none" /><path d="M 80.0844068197444 106.66101706037122 l -15.50640452725323 5.186309248546606 a37.35073041134186,37.35073041134186 0 0,0 -0.19868409605475806,-0.6114867715262782 l 15.593380874324236 -4.918623577042524" fill="red" stroke="none" /><path d="M 79.97269907076064 106.31721596034903 l -56.66938747728539 17.875237422135612 a80.42174341054314,80.42174341054314 0 0,0 -0.40506987434366626,-1.3237917865411832 l 56.96868412413519 -16.89711866304238" fill="red" stroke="none" /><path d="M 79.58551787078972 104.9243191809786 l -31.67843557013971 7.641375711325394 a53.587020467252394,53.587020467252394 0 0,0 -0.20857965364099848,-0.8985556888487152 l 31.80527578971126 -7.094951365128105" fill="red" stroke="none" /><path d="M 79.1416061653843 102.43462659150553 l -13.804040682341652 1.6112307007876745 a34.897755341453674,34.897755341453674 0 0,0 -0.06450716881593356,-0.5972562679849258 l 13.829730152658637 -1.3733781109179666" fill="red" stroke="none" /><path d="M 79.0095281055655 100.63252640178507 l -62.97141568330351 1.8975792053552267 a84.0,84.0 0 0,0 -0.03111174925997018,-1.4456407368394846 l 62.994749495248485 -0.8133486527256131" fill="red" stroke="none" /><line stroke="#e1ed5e" stroke-width="0.3" x1="15.007084014347285" x2="10.007500721073583" y1="101.09737516637583" y2="101.16192664675087" /><path d="M 14.007167355692545 101.11028546245083 a86.0,86.0 0 0,1 10.666146001902534,-42.60595125391555" fill="none" id="id34" stroke="none" /><text fill="#e1ed5e" style="font-size:6.75px; font-family:Arial;" text-anchor="middle"><textPath startOffset="22.20632615414155" xlink:href="#id34">October</textPath></text><path d="M 79.12142395522702 97.74499172005258 l -44.25079115640145 -4.7793441582378025 a65.50814137380192,65.50814137380192 0 0,0 0.13073443239843002,-1.1200527786173224 l 44.16196637099943 5.540340675179987" fill="red" stroke="none" /><path d="M 79.26566170972629 96.67025291283419 l -52.64651777844995 -8.454554313143825 a74.32105890575079,74.32105890575079 0 0,0 0.21371954272210192,-1.2613848391155276 l 52.493186374207625 9.35952494057518" fill="red" stroke="none" /><path d="M 79.3925641242962 95.95851677861259 l -56.662694122860415 -11.112558057072025 a78.74209774361022,78.74209774361022 0 0,0 0.2723003132986329,-1.327833033132057 l 56.46301451364678 12.086266746367485" fill="red" stroke="none" /><path d="M 79.62865764111835 94.90015583598534 l -45.54264158347423 -11.40132892578036 a67.94808306709265,67.94808306709265 0 0,0 0.2938064373749081,-1.1321560543942115 l 45.33963881422901 12.183581405723436" fill="red" stroke="none" /><path d="M 81.43458229118936 90.18545643968196 l -31.618300247293515 -16.71490455789788 a56.76457667731629,56.76457667731629 0 0,0 0.4640960984184399,-0.8598995863874435 l 31.325896049656603 17.256685127617796" fill="red" stroke="none" /><line stroke="#e1ed5e" stroke-width="0.3" x1="26.266209847984243" x2="21.928928074336255" y1="57.711370442889674" y2="55.22380399835377" /><path d="M 25.398753493254645 57.213857153982495 a86.0,86.0 0 0,1 29.58750427330803,-30.492523968695096" fill="none" id="id35" stroke="none" /><text fill="#e1ed5e" style="font-size:6.75px; font-family:Arial;" text-anchor="middle"><textPath startOffset="21.46611528233685" xlink:href="#id35">November</textPath></text><path d="M 81.78341655067845 89.55222093294921 l -36.87330399875648 -21.147990495745567 a63.507388178913736,63.507388178913736 0 0,0 0.5520313957961189,-0.9436005990216271 l 36.503812928490035 21.77957050712109" fill="red" stroke="none" /><path d="M 81.96595687620814 89.24020034530311 l -32.290587997412466 -19.265799421658755 a58.60123801916933,58.60123801916933 0 0,0 0.5242974678414708,-0.8618071823943959 l 31.954174731284777 19.818774377260226" fill="red" stroke="none" /><path d="M 82.7489923806493 88.02491185347247 l -27.478292288250913 -19.074536370776762 a54.44988019169329,54.44988019169329 0 0,0 0.5410953737712941,-0.7653410329855743 l 27.14588429467574 19.544703904094124" fill="red" stroke="none" /><path d="M 84.5562425177563 85.77008943001954 l -26.55166771607793 -24.464762381695643 a57.10423322683706,57.10423322683706 0 0,0 0.6722872622616413,-0.7171491775069315 l 26.12661313184583 24.918180976080624" fill="red" stroke="none" /><path d="M 85.05521093208273 85.24692304244772 l -26.27573237679944 -25.938666655600617 a57.92192492012779,57.92192492012779 0 0,0 0.7065487404730172,-0.7035145956409758 l 25.825347836159107 26.387117101891707" fill="red" stroke="none" /><path d="M 88.09926311788651 82.69761687909137 l -20.567267914275604 -29.90258105260866 a57.292931309904155,57.292931309904155 0 0,0 0.8173663459112321,-0.5518894054040204 l 20.049496873957832 30.252182370311345" fill="red" stroke="none" /><path d="M 88.70189139769569 82.29822771554957 l -22.943643068177888 -35.947888205443455 a63.64576677316294,63.64576677316294 0 0,0 0.9285639986609638,-0.5814666907748732 l 22.321459917144683 36.33749923754126" fill="red" stroke="none" /><line stroke="#e1ed5e" stroke-width="0.3" x1="56.76296977257108" x2="54.21961505331056" y1="26.818313649435495" y2="22.513508569990535" /><path d="M 56.25429882871898 25.957352633546506 a86.0,86.0 0 0,1 42.26535254187918,-11.944610805530505" fill="none" id="id36" stroke="none" /><text fill="#e1ed5e" style="font-size:6.75px; font-family:Arial;" text-anchor="middle"><textPath startOffset="22.20632615414155" xlink:href="#id36">December</textPath></text><path d="M 90.26544431104013 81.39251694778311 l -11.458707225722536 -21.903177434668248 a45.719448881789134,45.719448881789134 0 0,0 0.7004644376636798,-0.3588050911576988 l 11.079982300470093 22.09717505113845" fill="red" stroke="none" /><path d="M 91.56875222667455 80.76684994638697 l -20.530963777097412 -46.834717432869574 a72.13718051118211,72.13718051118211 0 0,0 1.1415407976703928,-0.4887481949792711 l 19.72173922163671 47.18118515581163" fill="red" stroke="none" /><path d="M 92.91201910852362 80.23233633223022 l -4.330914841836609 -12.078484589332183 a33.831469648562305,33.831469648562305 0 0,0 0.5498709247638607,-0.1918391686514799 l 4.122361913009463 12.151244611155871" fill="red" stroke="none" /><path d="M 97.83486435360386 79.11191278185805 l -3.255485506661934 -31.407207818012942 a52.57547923322684,52.57547923322684 0 0,0 0.900980662248925,-0.08555897022137905 l 2.714379717322773 31.458592332749504" fill="red" stroke="none" /></svg>