<?xml version="1.0" encoding="utf-8" ?>
<svg baseProfile="full" height="200mm" version="1.1" viewBox="0,0,200,200" width="200mm" xmlns="http://www.w3.org/2000/svg" xmlns:ev="http://www.w3.org/2001/xml-events" xmlns:xlink="http://www.w3.org/1999/xlink"><defs /><rect fill="#1a1a1a" height="200" width="200" x="0" y="0" /><text alignment-baseline="middle" fill="#e1ed5e" style="dominant-baseline: central; font-size:9.0px; font-family:Arial;" text-anchor="middle" x="100.0" y="100.0">2025</text><line stroke="#e1ed5e" stroke-width="0.3" x1="100.0" x2="100.0" y1="15.0" y2="10.0" /><path d="M 100.0 14.0 a86.0,86.0 0 0,1 42.46469731375804,11.215312516191453" fill="none" id="id49" stroke="none" /><text fill="#e1ed5e" style="font-size:6.75px; font-family:Arial;" text-anchor="middle"><textPath startOffset="22.20632615414155" xlink:href="#id49">January</textPath></text><path d="M 100.0 79.0 l 0.0 -15.46458238333021 a36.46458238333021,36.46458238333021 0 0,0 0.627677843638038,0.005402621365160068 l -0.26619736436550967 15.46229113857361" fill="#ffb410" stroke="none" /><path d="M 100.72285384407766 79.0124445844662 l 0.8975529299858024 -26.05982109770442 a47.07527328536532,47.07527328536532 0 0,0 0.8096031673708227,0.034863215432489034 l -1.3459969297459566 26.040510155747732" fill="#c4ff1e" stroke="none" /><path d="M 101.08401301168833 79.027996857942 l 0.1550848286645914 -3.000369441113742 a24.004374824693336,24.004374824693336 0 0,0 0.4124614014584925,0.024880798119205252 l -0.20670827896269584 2.997255373614233" fill="#ff0400" stroke="none" /><path d="M 101.80526077348638 79.07773832637324 l 1.2448839980444673 -14.427715454148252 a35.4813227777871,35.4813227777871 0 0,0 0.6080398345393407,0.05774070884819422 l -1.4930489596740522 14.40414920078488" fill="#ffa70f" stroke="none" /><path d="M 102.16513564639614 79.11191278185805 l 2.473063037763866 -23.85880834522248 a44.98663745594225,44.98663745594225 0 0,0 0.7695570510148095,0.08646870130823166 l -2.883386792288401 23.812703690443648" fill="#ddff1b" stroke="none" /><path d="M 103.59715602781102 79.31037775812273 l 5.7908157861767995 -33.306809646843476 a54.806465599356876,54.806465599356876 0 0,0 0.9280688839160635,0.16959865646864353 l -6.363279791195764 33.202195509024094" fill="#6dff28" stroke="none" /><path d="M 104.307194497241 79.44645832069477 l 5.317720370025393 -25.375679536695802 a46.92688299589569,46.92688299589569 0 0,0 0.7891700077522216,0.17248199731988395 l -5.753733101931142 25.280384041280048" fill="#c6ff1e" stroke="none" /><path d="M 105.36241919743992 79.69619591428918 l 5.810255168088 -21.999451791677867 a43.75378966793558,43.75378966793558 0 0,0 0.7265256576986157,0.19858690691474826 l -6.1880787150103265 21.896178343936825" fill="#ecff1a" stroke="none" /><path d="M 106.0581310904928 79.89281104454417 l 14.616687607898458 -48.5133938577379 a71.66751365740078,71.66751365740078 0 0,0 1.17812733409472,0.36604989753323436 l -15.449600314703897 48.25460382532215" fill="#3dffaf" stroke="none" /><path d="M 106.74666289553966 80.11325718540242 l 8.583842132161108 -25.302088378574688 a47.71849587957878,47.71849587957878 0 0,0 0.7755800658444173,0.2705846560593226 l -9.0181042020688 25.150582869343157" fill="#bdff1f" stroke="none" /><path d="M 109.73455568895987 81.39251694778311 l 23.43590089955423 -44.79743531555937 a71.55740956403376,71.55740956403376 0 0,0 1.086496880814027,0.5803690059610376 l -24.20354282689657 44.387387583096576" fill="#3dffae" stroke="none" /><line stroke="#e1ed5e" stroke-width="0.3" x1="143.23703022742887" x2="145.7803849466894" y1="26.81831364943548" y2="22.513508569990506" /><path d="M 143.74570117128098 25.957352633546492 a86.0,86.0 0 0,1 28.547481713284135,27.462654790039103" fill="none" id="id50" stroke="none" /><text fill="#e1ed5e" style="font-size:6.75px; font-family:Arial;" text-anchor="middle"><textPath startOffset="19.985693538727396" xlink:href="#id50">February</textPath></text><path d="M 110.99172775467656 82.1063720568725 l 5.478814942904437 -8.91905970977755 a31.467427539045595,31.467427539045595 0 0,0 0.45909605343224646,0.28748590654171985 l -5.631530148708947 8.823429461912884" fill="#ff700a" stroke="none" /><path d="M 111.60114157652 82.49532879139004 l 15.428241135857396 -23.27928563141857 a48.92768812586057,48.92768812586057 0 0,0 0.6980240798118387,0.4713089746013048 l -15.826669910075776 23.010264744518597" fill="#afff20" stroke="none" /><path d="M 113.06298171725822 83.55741782278167 l 23.463971155891265 -29.53447247230777 a58.72059128144736,58.72059128144736 0 0,0 0.786007554452306,0.6355634458722902 l -23.968882108908065 29.12620292917135" fill="#44ff2d" stroke="none" /><path d="M 113.34407831869373 83.78471172551755 l 14.816474336310527 -18.00449583978948 a44.31715639188332,44.31715639188332 0 0,0 0.5848650417816448,0.4898076526739628 l -15.12419691505129 17.746787029721702" fill="#e6ff1a" stroke="none" /><path d="M 114.16331599549186 84.49514656593476 l 18.06182743696992 -19.77262861682495 a47.78033705504403,47.78033705504403 0 0,0 0.6024693600857431,0.5599296107168692 l -18.39950468085051 19.45879442003344" fill="#bcff1f" stroke="none" /><path d="M 115.19652480421416 85.50635884689758 l 20.060124343862604 -19.132285010710614 a48.720983359583244,48.720983359583244 0 0,0 0.5735913901058227,0.6118673024617847 l -20.38648305593889 18.784148291370773" fill="#b1ff20" stroke="none" /><path d="M 115.4437574822437 85.77008943001954 l 16.996839428668675 -15.660923536280164 a44.11183845074122,44.11183845074122 0 0,0 0.5097151487709732,0.562840198156764 l -17.263898218055687 15.36603055085385" fill="#e8ff1a" stroke="none" /><path d="M 116.60985879189232 87.15038557335679 l 14.891044280795372 -11.519915961699256 a39.82688671919024,39.82688671919024 0 0,0 0.41481420721217266,0.5458468727164013 l -15.087134428231659 11.261884313101822" fill="#ffe015" stroke="none" /><path d="M 117.2510076193507 88.02491185347247 l 29.92990241848199 -20.776364348494763 a57.43427471929774,57.43427471929774 0 0,0 0.556772055471895,0.8169942893418639 l -30.283098939622622 20.258092035882495" fill="#51ff2b" stroke="none" /><line stroke="#e1ed5e" stroke-width="0.3" x1="172.23445277983987" x2="176.4835382374775" y1="55.19839476539836" y2="52.563006222186495" /><path d="M 173.08426987136738 54.67131705675599 a86.0,86.0 0 0,1 12.851231095245387,41.99856678651699" fill="none" id="id51" stroke="none" /><text fill="#e1ed5e" style="font-size:6.75px; font-family:Arial;" text-anchor="middle"><textPath startOffset="22.20632615414155" xlink:href="#id51">March</textPath></text><path d="M 118.73160827565052 90.50648371742162 l 19.805041722530213 -10.037551677524355 a43.203425891292866,43.203425891292866 0 0,0 0.330485608359318,0.6662388199472098 l -19.974887343842937 9.695153269078196" fill="#f3ff19" stroke="none" /><path d="M 119.196687751892 91.48605970444005 l 46.237381293824555 -20.50678267243595 a71.58086164237454,71.58086164237454 0 0,0 0.4898492769273775,1.1306396684763653 l -46.58352128059461 19.707843859372982" fill="#3dffae" stroke="none" /><path d="M 120.08093135843002 93.85539295169968 l 48.34730068561342 -14.793893732145154 a71.56007095864403,71.56007095864403 0 0,0 0.35028349032460665,1.1809817941237666 l -48.59479007304973 13.959482551274856" fill="#3dffae" stroke="none" /><path d="M 120.37134235888165 94.90015583598534 l 13.78417924222445 -3.4507871315383167 a35.209557671122695,35.209557671122695 0 0,0 0.14212455275410737,0.5891980263034458 l -13.841536595239377 3.2130038735754645" fill="#ffa40f" stroke="none" /><path d="M 120.45610955862082 95.25157060432595 l 18.53635985103876 -4.302802336545517 a40.029207668071294,40.029207668071294 0 0,0 0.15002492034944231,0.6725323009958827 l -18.60767915839024 3.98309186599967" fill="#ffe315" stroke="none" /><path d="M 120.6074358757038 95.95851677861258 l 35.295144385830476 -6.922003042598765 a56.96750399094115,56.96750399094115 0 0,0 0.1804358232676025,0.963895382867635 l -35.40906593300794 6.313429582268567" fill="#56ff2a" stroke="none" /><path d="M 120.91429891909075 98.10471618934814 l 12.008161434464057 -1.0881968384634348 a33.05736759808673,33.05736759808673 0 0,0 0.046477897233439036,0.5671480704446427 l -12.025113815516992 0.8813348508110234" fill="#ff860c" stroke="none" /><path d="M 120.96714384426684 98.82574320788733 l 50.218703147236674 -2.812479072005645 a71.297397391125,71.297397391125 0 0,0 0.058078152938317654,1.2259380154581692 l -50.259674908408485 1.9476299499244762" fill="#3dffab" stroke="none" /><line stroke="#e1ed5e" stroke-width="0.3" x1="184.98032266829074" x2="189.97916517819016" y1="98.17113171792111" y2="98.06355123074" /><path d="M 185.9800911702706 98.14961562048488 a86.0,86.0 0 0,1 -9.607161424134198,41.387399972396054" fill="none" id="id52" stroke="none" /><text fill="#e1ed5e" style="font-size:6.75px; font-family:Arial;" text-anchor="middle"><textPath startOffset="21.466115282336823" xlink:href="#id52">April</textPath></text><path d="M 120.9764740272857 100.99374915477107 l 23.985539124997302 1.1363019924697333 a45.01243988716821,45.01243988716821 0 0,0 -0.043326936455971354,0.7736315558109788 l -23.9624258376538 -1.5490052646161354" fill="#ddff1b" stroke="none" /><path d="M 120.95626037817324 101.35467743843564 l 24.46578201657267 1.5815437636981937 a45.516846664262175,45.516846664262175 0 0,0 -0.05727198702940328,0.7814307602106613 l -24.434933470878928 -2.0024476604056254" fill="#d7ff1c" stroke="none" /><path d="M 120.92983693683757 101.71520430193887 l 23.888415372001198 1.9576603934473873 a44.96849647352407,44.96849647352407 0 0,0 -0.0698626358219827,0.7709283647360303 l -23.851178139902142 -2.3685701467319884" fill="#deff1b" stroke="none" /><path d="M 120.8583938346157 102.4346265915055 l 2.7050680094468578 0.3157400593664422 a23.72343252547617,23.72343252547617 0 0,0 -0.05083422186336485,0.4051987644880596 l -2.6992322783366447 -0.3622565781418967" fill="#ff0000" stroke="none" /><path d="M 120.81339534386255 102.79330883721812 l 23.783057296807137 3.1918590420099813 a44.996286765399184,44.996286765399184 0 0,0 -0.10963227205146622,0.766767855384099 l -23.72459097373907 -3.6007723693744897" fill="#ddff1b" stroke="none" /><path d="M 120.70491114924044 103.5080841355445 l 11.892941703561636 2.015050430040155 a33.06244132006123,33.06244132006123 0 0,0 -0.099901406033795,0.5603001390853835 l -11.856493855188653 -2.219469319858757" fill="#ff860c" stroke="none" /><path d="M 120.64145759157962 103.86396538481128 l 11.825827639561512 2.2137287758520796 a33.031242431837725,33.031242431837725 0 0,0 -0.10942789285143037,0.5579704681231079 l -11.785969813734418 -2.4169629710431324" fill="#ff860c" stroke="none" /><path d="M 120.5718875245553 104.21870165774334 l 29.120100099081604 5.971693866934221 a50.726105655146156,50.726105655146156 0 0,0 -0.18277331172200464,0.853856063996642 l -29.012992748635156 -6.472063750347033" fill="#9aff22" stroke="none" /><path d="M 120.41448212921028 104.9243191809786 l 23.304203752169308 5.621369026551942 a44.97260315975926,44.97260315975926 0 0,0 -0.18800408210119327,0.7509828532360132 l -23.203988355773053 -6.02167971918535" fill="#deff1b" stroke="none" /><path d="M 120.02730092923936 106.31721596034902 l 48.25689748072069 15.221683842432448 a71.60067008907842,71.60067008907842 0 0,0 -0.3808737943513945,1.1722090066167683 l -47.98773143535304 -16.05009174902701" fill="#3dffae" stroke="none" /><path d="M 119.26925614724726 108.34839909993367 l 13.125997939436642 5.686834434394003 a35.30496095032434,35.30496095032434 0 0,0 -0.24639318002306212,0.555551575052161 l -13.026163674682307 -5.911934345938851" fill="#ffa50f" stroke="none" /><path d="M 118.97047184881838 109.00673069616215 l 14.09712150509398 6.692979383924294 a36.60528140608233,36.60528140608233 0 0,0 -0.2751440219358118,0.5668781801550916 l -13.979824226543455 -6.934646520044661" fill="#ffb610" stroke="none" /><path d="M 118.81262510543309 109.33194174019688 l 11.52763871185792 5.718247839320869 a33.867976244267126,33.867976244267126 0 0,0 -0.2635595109278654,0.5200279189579589 l -11.427500531143785 -5.915829969981522" fill="#ff910d" stroke="none" /><line stroke="#e1ed5e" stroke-width="0.3" x1="174.80103733775053" x2="179.2010983576182" y1="140.37084112569926" y2="142.7455964860345" /><path d="M 175.68104954172406 140.8457921977663 a86.0,86.0 0 0,1 -30.038265399797805,32.042727171017184" fill="none" id="id53" stroke="none" /><text fill="#e1ed5e" style="font-size:6.75px; font-family:Arial;" text-anchor="middle"><textPath startOffset="22.206326154141568" xlink:href="#id53">May</textPath></text><path d="M 118.48025628344425 109.97397251340804 l 17.055523171467932 9.205030314780396 a40.38100755245985,40.38100755245985 0 0,0 -0.33540001558408367,0.608848451805223 l -16.89454674643234 -9.497249284983425" fill="#ffe715" stroke="none" /><path d="M 118.30583269289576 110.29060199501025 l 17.970149411446013 10.101898039078268 a41.61491241459994,41.61491241459994 0 0,0 -0.3563980441933028,0.6214100309315698 l -17.79359937110033 -10.409727915868151" fill="#fff717" stroke="none" /><path d="M 118.12598468904814 110.60418214915192 l 46.611084471174635 27.26872158291549 a75.00163305258035,75.00163305258035 0 0,0 -0.6615112759619919,1.1087309485698003 l -46.13479231951442 -28.067014625371392" fill="#42ffd3" stroke="none" /><path d="M 117.75023020441432 111.22182372390056 l 20.2472038995741 12.800428526633253 a44.9541277490201,44.9541277490201 0 0,0 -0.41913331354213923,0.650504210347564 l -20.023865722654907 -13.147054336902269" fill="#deff1b" stroke="none" /><path d="M 117.55443506779139 111.5257021239791 l 20.233095680850674 13.284428291932107 a45.204425130003486,45.204425130003486 0 0,0 -0.4326642415630601,0.6467743364815913 l -20.00142833387689 -13.630739542619505" fill="#dbff1b" stroke="none" /><path d="M 116.71984013943494 112.70617746262583 l 48.23136657029932 36.65323937289113 a81.57825251494998,81.57825251494998 0 0,0 -0.8592644437890429,1.1107151236100041 l -47.593295309292216 -37.47803249061438" fill="#4ae9ff" stroke="none" /><path d="M 116.498646956653 112.99209946851258 l 19.676615469292788 15.494636987649418 a46.04501890008162,46.04501890008162 0 0,0 -0.4957120958287698,0.6184770587655445 l -19.406985461409164 -15.831041879993213" fill="#d1ff1d" stroke="none" /><path d="M 116.0416608686014 113.55231037782055 l 13.119666524740754 11.08375212848461 a38.17484238548029,38.17484238548029 0 0,0 -0.4283898835282548,0.49831421589330055 l -12.92693413164172 -11.307943443539438" fill="#ffcb12" stroke="none" /><path d="M 115.80600337817218 113.82643327865902 l 18.260432032548664 15.973465214248156 a45.26097625748241,45.26097625748241 0 0,0 -0.51800357617917,0.5819825091555056 l -17.982769606721156 -16.285421893144527" fill="#daff1c" stroke="none" /><path d="M 115.32070863581623 114.36230785411682 l 12.207720260171646 11.444055281075007 a37.733046202855775,37.733046202855775 0 0,0 -0.4482927535298741,0.470033159825263 l -12.008920955262807 -11.652495557482778" fill="#ffc512" stroke="none" /><path d="M 115.07121518719521 114.62390073753431 l 45.21364556158561 43.87170221260295 a84.0,84.0 0 0,0 -1.0158374997778576,1.0290380240773414 l -44.45176743675221 -44.643480730660954" fill="#4dd2ff" stroke="none" /><path d="M 114.55890576462653 115.13401014063108 l 8.733534682068125 9.078525857562123 a33.59739099136448,33.59739099136448 0 0,0 -0.42023003197107367,0.3973537246647402 l -8.575968815706243 -9.227514218972786" fill="#ff8e0d" stroke="none" /><line stroke="#e1ed5e" stroke-width="0.3" x1="143.8653032363475" x2="146.44561519142675" y1="172.8068346515853" y2="177.08958963109032" /><path d="M 144.38136562736335 173.6633856474863 a86.0,86.0 0 0,1 -40.68145358897372,12.25698825130547" fill="none" id="id54" stroke="none" /><text fill="#e1ed5e" style="font-size:6.75px; font-family:Arial;" text-anchor="middle"><textPath startOffset="21.466115282336833" xlink:href="#id54">June</textPath></text><line stroke="#e1ed5e" stroke-width="0.3" x1="102.19456741930631" x2="102.32365962044197" y1="184.97166512339345" y2="189.96999836594603" /><path d="M 102.22038585953345 185.97133177190398 a86.0,86.0 0 0,1 -42.740103519485714,-10.115201625700543" fill="none" id="id55" stroke="none" /><text fill="#e1ed5e" style="font-size:6.75px; font-family:Arial;" text-anchor="middle"><textPath startOffset="22.20632615414155" xlink:href="#id55">July</textPath></text><line stroke="#e1ed5e" stroke-width="0.3" x1="58.666819895761336" x2="56.23545636021788" y1="174.27360380694188" y2="178.64263932499728" /><path d="M 58.180547188652646 175.14741091055294 a86.0,86.0 0 0,1 -31.652253787137756,-30.449443065178592" fill="none" id="id56" stroke="none" /><text fill="#e1ed5e" style="font-size:6.75px; font-family:Arial;" text-anchor="middle"><textPath startOffset="22.20632615414155" xlink:href="#id56">August</textPath></text><line stroke="#e1ed5e" stroke-width="0.3" x1="26.63291911575756" x2="22.317208475507996" y1="142.92168965132927" y2="145.44649492493687" /><path d="M 25.769776987707644 143.4266507060508 a86.0,86.0 0 0,1 -11.730757126820373,-40.83630448921669" fill="none" id="id57" stroke="none" /><text fill="#e1ed5e" style="font-size:6.75px; font-family:Arial;" text-anchor="middle"><textPath startOffset="21.46611528233685" xlink:href="#id57">September</textPath></text><line stroke="#e1ed5e" stroke-width="0.3" x1="15.007084014347285" x2="10.007500721073583" y1="101.09737516637583" y2="101.16192664675087" /><path d="M 14.007167355692545 101.11028546245083 a86.0,86.0 0 0,1 10.666146001902534,-42.60595125391555" fill="none" id="id58" stroke="none" /><text fill="#e1ed5e" style="font-size:6.75px; font-family:Arial;" text-anchor="middle"><textPath startOffset="22.20632615414155" xlink:href="#id58">October</textPath></text><line stroke="#e1ed5e" stroke-width="0.3" x1="26.266209847984243" x2="21.928928074336255" y1="57.711370442889674" y2="55.22380399835377" /><path d="M 25.398753493254645 57.213857153982495 a86.0,86.0 0 0,1 29.58750427330803,-30.492523968695096" fill="none" id="id59" stroke="none" /><text fill="#e1ed5e" style="font-size:6.75px; font-family:Arial;" text-anchor="middle"><textPath startOffset="21.46611528233685" xlink:href="#id59">November</textPath></text><line stroke="#e1ed5e" stroke-width="0.3" x1="56.762969772571076" x2="54.21961505331055" y1="26.818313649435495" y2="22.513508569990535" /><path d="M 56.25429882871897 25.957352633546506 a86.0,86.0 0 0,1 42.265352541879196,-11.944610805530505" fill="none" id="id60" stroke="none" /><text fill="#e1ed5e" style="font-size:6.75px; font-family:Arial;" text-anchor="middle"><textPath startOffset="22.20632615414155" xlink:href="#id60">December</textPath></text></svg>