<?xml version="1.0" encoding="utf-8" ?>
<svg baseProfile="full" height="200mm" version="1.1" viewBox="0,0,200,200" width="200mm" xmlns="http://www.w3.org/2000/svg" xmlns:ev="http://www.w3.org/2001/xml-events" xmlns:xlink="http://www.w3.org/1999/xlink"><defs /><rect fill="#1a1a1a" height="200" width="200" x="0" y="0" /><text alignment-baseline="middle" fill="#e1ed5e" style="dominant-baseline: central; font-size:9.0px; font-family:Arial;" text-anchor="middle" x="100.0" y="100.0">2025</text><line stroke="#e1ed5e" stroke-width="0.3" x1="100.0" x2="100.0" y1="15.0" y2="10.0" /><path d="M 100.0 14.0 a86.0,86.0 0 0,1 42.46469731375804,11.215312516191453" fill="none" id="id49" stroke="none" /><text fill="#e1ed5e" style="font-size:6.75px; font-family:Arial;" text-anchor="middle"><textPath startOffset="22.20632615414155" xlink:href="#id49">January</textPath></text><path d="M 100.0 79.0 l 0.0 -19.228665861473473 a40.22866586147347,40.22866586147347 0 0,0 0.6924703531476111,0.0059603109502342514 l -0.33098987387508266 19.2258169271318" fill="#ffdf14" stroke="none" /><path d="M 100.72285384407766 79.0124445844662 l 1.1160175526166987 -32.402788505797794 a53.422001760058095,53.422001760058095 0 0,0 0.9187545565599166,0.039563503857017714 l -1.6736129415659466 32.37877727541658" fill="#80ff26" stroke="none" /><path d="M 101.08401301168833 79.027996857942 l 0.19283251733908874 -3.730660163596874 a24.7356404586084,24.7356404586084 0 0,0 0.4250265630344885,0.025638762979437173 l -0.25702112921318915 3.726788131237133" fill="#ff0500" stroke="none" /><path d="M 101.80526077348638 79.07773832637324 l 1.5478890953107953 -17.939425245086493 a39.00608060560178,39.00608060560178 0 0,0 0.6684432524118396,0.06347674120445279 l -1.8564574748128793 17.910122959366863" fill="#ffcf13" stroke="none" /><path d="M 102.16513564639614 79.11191278185805 l 3.07500724098322 -29.66604866211872 a50.82499141249323,50.82499141249323 0 0,0 0.86942996234285,0.09769058658239002 l -3.585203906835795 29.60872212206573" fill="#9dff22" stroke="none" /><path d="M 103.59715602781102 79.31037775812273 l 7.200301893555627 -41.41369600133606 a63.03496834600235,63.03496834600235 0 0,0 1.0674067754744117,0.19506176552554266 l -7.91210379013294 41.28361875445979" fill="#32ff48" stroke="none" /><path d="M 104.307194497241 79.44645832069477 l 6.612054926888355 -31.552126706306726 a53.23749323454016,53.23749323454016 0 0,0 0.8952956230288185,0.19567694632947205 l -7.1541932740707015 31.433636261881382" fill="#82ff25" stroke="none" /><path d="M 105.36241919743992 79.69619591428918 l 7.224472826210554 -27.354124227354188 a49.292068143954765,49.292068143954765 0 0,0 0.8184880098250337,0.22372369164887548 l -7.694258725259298 27.225713994879015" fill="#afff20" stroke="none" /><path d="M 106.0581310904928 79.89281104454417 l 18.174393271478365 -60.321566866367476 a84.0,84.0 0 0,0 1.380858509157127,0.4290394604699177 l -19.21003715334621 59.99978727101504" fill="#4dd2ff" stroke="none" /><path d="M 106.74666289553966 80.11325718540242 l 10.67315159734822 -31.460623440664378 a54.22178490531864,54.22178490531864 0 0,0 0.8812795695236,0.3074611374288297 l -11.213113170935094 31.27224145006334" fill="#77ff27" stroke="none" /><path d="M 109.73455568895987 81.39251694778311 l 29.140205431340654 -55.7011430235833 a83.86309654093105,83.86309654093105 0 0,0 1.2733411307404914,0.6801747334456055 l -30.09469160860946 55.191289563635934" fill="#4dd3ff" stroke="none" /><line stroke="#e1ed5e" stroke-width="0.3" x1="143.23703022742887" x2="145.7803849466894" y1="26.81831364943548" y2="22.513508569990506" /><path d="M 143.74570117128098 25.957352633546492 a86.0,86.0 0 0,1 28.547481713284135,27.462654790039103" fill="none" id="id50" stroke="none" /><text fill="#e1ed5e" style="font-size:6.75px; font-family:Arial;" text-anchor="middle"><textPath startOffset="19.985693538727396" xlink:href="#id50">February</textPath></text><path d="M 110.99172775467656 82.1063720568725 l 6.812359961787126 -11.089961222794502 a34.01520219481995,34.01520219481995 0 0,0 0.49626697527037084,0.31076233438668643 l -7.002246089429761 10.971054547084872" fill="#ff8c0c" stroke="none" /><path d="M 111.60114157652 82.49532879139004 l 19.18347914466972 -28.945469965154906 a55.72529486696496,55.72529486696496 0 0,0 0.795001749759711,0.5367887302490989 l -19.678885588835975 28.610969322607136" fill="#67ff28" stroke="none" /><path d="M 113.06298171725822 83.55741782278167 l 29.175107995559422 -36.723170952036824 a67.90179326342519,67.90179326342519 0 0,0 0.9089030151297786,0.7349363616003878 l -29.80291440925369 36.21552849317231" fill="#38ff83" stroke="none" /><path d="M 113.34407831869373 83.78471172551755 l 18.422808142890194 -22.38679493089864 a49.99255847882091,49.99255847882091 0 0,0 0.6597647995493232,0.5525340458026732 l -18.805430479398634 22.066359727702146" fill="#a7ff21" stroke="none" /><path d="M 114.16331599549186 84.49514656593476 l 22.458081054129206 -24.58529169761267 a54.29867823939172,54.29867823939172 0 0,0 0.684660091340535,0.636316937948715 l -22.877949029264585 24.195070173589315" fill="#76ff27" stroke="none" /><path d="M 115.19652480421416 85.50635884689758 l 24.94276396131682 -23.789088286922695 a55.46827810542569,55.46827810542569 0 0,0 0.6530271876995967,0.6966038728340068 l -25.34855847098688 23.356214997210635" fill="#69ff28" stroke="none" /><path d="M 115.4437574822437 85.77008943001954 l 21.133874680462434 -19.472796503436413 a49.737266096024804,49.737266096024804 0 0,0 0.5747173293606124,0.6346172294886955 l -21.465935650439082 19.106126486678168" fill="#aaff21" stroke="none" /><path d="M 116.60985879189232 87.15038557335679 l 18.515528431758344 -14.323866580357556 a44.40935596976422,44.40935596976422 0 0,0 0.4625426014161586,0.6086518448293642 l -18.759346973398618 14.003029959647158" fill="#eaff1a" stroke="none" /><path d="M 117.2510076193507 88.02491185347247 l 37.21484865261288 -25.833336974173463 a66.30238690685161,66.30238690685161 0 0,0 0.642740182952414,0.9431419085097635 l -37.65401330123402 25.188917042393292" fill="#36ff70" stroke="none" /><line stroke="#e1ed5e" stroke-width="0.3" x1="172.23445277983987" x2="176.4835382374775" y1="55.19839476539836" y2="52.563006222186495" /><path d="M 173.08426987136738 54.67131705675599 a86.0,86.0 0 0,1 12.851231095245387,41.99856678651699" fill="none" id="id51" stroke="none" /><text fill="#e1ed5e" style="font-size:6.75px; font-family:Arial;" text-anchor="middle"><textPath startOffset="22.20632615414155" xlink:href="#id51">March</textPath></text><path d="M 118.73160827565052 90.50648371742162 l 24.6255941618946 -12.48069443391106 a48.607745677236956,48.607745677236956 0 0,0 0.371826077902637,0.7495786839168955 l -24.836780252750646 12.054956161495214" fill="#b7ff1f" stroke="none" /><path d="M 119.196687751892 91.48605970444005 l 57.491572237144204 -25.498139046235973 a83.89225686139713,83.89225686139713 0 0,0 0.5740998420593751,1.3251015887374225 l -57.92196278904626 24.504738312911947" fill="#4dd3ff" stroke="none" /><path d="M 120.08093135843002 93.85539295169968 l 60.115046571833275 -18.394731413646337 a83.86640571969954,83.86640571969954 0 0,0 0.410522473258215,1.384077698173362 l -60.42277494220319 17.357224328726446" fill="#4dd3ff" stroke="none" /><path d="M 120.37134235888165 94.90015583598534 l 17.139252147481223 -4.290709640044857 a38.668167799466744,38.668167799466744 0 0,0 0.15608534778121655,0.6470745347335627 l -17.210570295523258 3.995049873651888" fill="#ffcb12" stroke="none" /><path d="M 120.45610955862082 95.25157060432595 l 23.04811478439042 -5.350105573273432 a44.66092189158334,44.66092189158334 0 0,0 0.16738405878719934,0.7503499148273584 l -23.13679323017966 4.95257748889611" fill="#e7ff1a" stroke="none" /><path d="M 120.6074358757038 95.95851677861258 l 43.885991946291796 -8.606820429998049 a65.72200405867586,65.72200405867586 0 0,0 0.20816435824552929,1.1120223254829504 l -44.02764202844719 7.850120027052536" fill="#35ff69" stroke="none" /><path d="M 120.91429891909075 98.10471618934814 l 14.930951131460043 -1.3530642392826915 a35.99213408843696,35.99213408843696 0 0,0 0.05060411130471715,0.6174983334312232 l -14.952029726584255 1.0958519886436997" fill="#ffa70f" stroke="none" /><path d="M 120.96714384426684 98.82574320788733 l 62.44194889191669 -3.497037228517623 a83.53979733576352,83.53979733576352 0 0,0 0.06805069053904182,1.4364425225195105 l -62.49289319068923 2.421683599375113" fill="#4cd6ff" stroke="none" /><line stroke="#e1ed5e" stroke-width="0.3" x1="184.98032266829074" x2="189.97916517819016" y1="98.17113171792111" y2="98.06355123074" /><path d="M 185.9800911702706 98.14961562048488 a86.0,86.0 0 0,1 -9.607161424134198,41.387399972396054" fill="none" id="id52" stroke="none" /><text fill="#e1ed5e" style="font-size:6.75px; font-family:Arial;" text-anchor="middle"><textPath startOffset="21.466115282336823" xlink:href="#id52">April</textPath></text><path d="M 120.9764740272857 100.99374915477107 l 29.823625747503247 1.4128782006088592 a50.85707416236384,50.85707416236384 0 0,0 -0.04895271676213916,0.8740836423630508 l -29.794886679853576 -1.9260335593073334" fill="#9dff22" stroke="none" /><path d="M 120.95626037817324 101.35467743843564 l 30.42075988701967 1.9664919377474264 a51.484253683581144,51.484253683581144 0 0,0 -0.06478053128183159,0.8838788809688625 l -30.3824027970735 -2.4898439552130593" fill="#96ff23" stroke="none" /><path d="M 120.92983693683757 101.71520430193887 l 29.702862047114717 2.4341554555276823 a50.80243491011436,50.80243491011436 0 0,0 -0.07892618805000394,0.8709439083186189 l -29.656561262787637 -2.9450807523948717" fill="#9eff22" stroke="none" /><path d="M 120.8583938346157 102.4346265915055 l 3.3634822846741295 0.39259127405752187 a24.386316728804736,24.386316728804736 0 0,0 -0.052254640372597756,0.41652089756888344 l -3.356226135054684 -0.4504299259138002" fill="#ff0000" stroke="none" /><line stroke="#e1ed5e" stroke-width="0.3" x1="174.80103733775053" x2="179.2010983576182" y1="140.37084112569926" y2="142.7455964860345" /><path d="M 175.68104954172406 140.8457921977663 a86.0,86.0 0 0,1 -30.038265399797805,32.042727171017184" fill="none" id="id53" stroke="none" /><text fill="#e1ed5e" style="font-size:6.75px; font-family:Arial;" text-anchor="middle"><textPath startOffset="22.206326154141568" xlink:href="#id53">May</textPath></text><line stroke="#e1ed5e" stroke-width="0.3" x1="143.8653032363475" x2="146.44561519142675" y1="172.8068346515853" y2="177.08958963109032" /><path d="M 144.38136562736335 173.6633856474863 a86.0,86.0 0 0,1 -40.68145358897372,12.25698825130547" fill="none" id="id54" stroke="none" /><text fill="#e1ed5e" style="font-size:6.75px; font-family:Arial;" text-anchor="middle"><textPath startOffset="21.466115282336833" xlink:href="#id54">June</textPath></text><line stroke="#e1ed5e" stroke-width="0.3" x1="102.19456741930631" x2="102.32365962044197" y1="184.97166512339345" y2="189.96999836594603" /><path d="M 102.22038585953345 185.97133177190398 a86.0,86.0 0 0,1 -42.740103519485714,-10.115201625700543" fill="none" id="id55" stroke="none" /><text fill="#e1ed5e" style="font-size:6.75px; font-family:Arial;" text-anchor="middle"><textPath startOffset="22.20632615414155" xlink:href="#id55">July</textPath></text><line stroke="#e1ed5e" stroke-width="0.3" x1="58.666819895761336" x2="56.23545636021788" y1="174.27360380694188" y2="178.64263932499728" /><path d="M 58.180547188652646 175.14741091055294 a86.0,86.0 0 0,1 -31.652253787137756,-30.449443065178592" fill="none" id="id56" stroke="none" /><text fill="#e1ed5e" style="font-size:6.75px; font-family:Arial;" text-anchor="middle"><textPath startOffset="22.20632615414155" xlink:href="#id56">August</textPath></text><line stroke="#e1ed5e" stroke-width="0.3" x1="26.63291911575756" x2="22.317208475507996" y1="142.92168965132927" y2="145.44649492493687" /><path d="M 25.769776987707644 143.4266507060508 a86.0,86.0 0 0,1 -11.730757126820373,-40.83630448921669" fill="none" id="id57" stroke="none" /><text fill="#e1ed5e" style="font-size:6.75px; font-family:Arial;" text-anchor="middle"><textPath startOffset="21.46611528233685" xlink:href="#id57">September</textPath></text><line stroke="#e1ed5e" stroke-width="0.3" x1="15.007084014347285" x2="10.007500721073583" y1="101.09737516637583" y2="101.16192664675087" /><path d="M 14.007167355692545 101.11028546245083 a86.0,86.0 0 0,1 10.666146001902534,-42.60595125391555" fill="none" id="id58" stroke="none" /><text fill="#e1ed5e" style="font-size:6.75px; font-family:Arial;" text-anchor="middle"><textPath startOffset="22.20632615414155" xlink:href="#id58">October</textPath></text><line stroke="#e1ed5e" stroke-width="0.3" x1="26.266209847984243" x2="21.928928074336255" y1="57.711370442889674" y2="55.22380399835377" /><path d="M 25.398753493254645 57.213857153982495 a86.0,86.0 0 0,1 29.58750427330803,-30.492523968695096" fill="none" id="id59" stroke="none" /><text fill="#e1ed5e" style="font-size:6.75px; font-family:Arial;" text-anchor="middle"><textPath startOffset="21.46611528233685" xlink:href="#id59">November</textPath></text><line stroke="#e1ed5e" stroke-width="0.3" x1="56.762969772571076" x2="54.21961505331055" y1="26.818313649435495" y2="22.513508569990535" /><path d="M 56.25429882871897 25.957352633546506 a86.0,86.0 0 0,1 42.265352541879196,-11.944610805530505" fill="none" id="id60" stroke="none" /><text fill="#e1ed5e" style="font-size:6.75px; font-family:Arial;" text-anchor="middle"><textPath startOffset="22.20632615414155" xlink:href="#id60">December</textPath></text></svg>