<?xml version="1.0" encoding="utf-8" ?>
<svg baseProfile="full" height="200mm" version="1.1" viewBox="0,0,200,200" width="200mm" xmlns="http://www.w3.org/2000/svg" xmlns:ev="http://www.w3.org/2001/xml-events" xmlns:xlink="http://www.w3.org/1999/xlink"><defs /><rect fill="#1a1a1a" height="200" width="200" x="0" y="0" /><text alignment-baseline="middle" fill="#e1ed5e" style="dominant-baseline: central; font-size:9.0px; font-family:Arial;" text-anchor="middle" x="100.0" y="100.0">2025</text><line stroke="#e1ed5e" stroke-width="0.3" x1="100.0" x2="100.0" y1="15.0" y2="10.0" /><path d="M 100.0 14.0 a86.0,86.0 0 0,1 42.46469731375804,11.215312516191453" fill="none" id="id49" stroke="none" /><text fill="#e1ed5e" style="font-size:6.75px; font-family:Arial;" text-anchor="middle"><textPath startOffset="22.20632615414155" xlink:href="#id49">January</textPath></text><path d="M 100.0 79.0 l 0.0 -13.55611045766301 a34.55611045766301,34.55611045766301 0 0,0 0.5948266366681169,0.005119860655273771 l -0.2333461573955885 13.554101973616294" fill="#ff9f0e" stroke="none" /><path d="M 100.72285384407766 79.0124445844662 l 0.7867866301777523 -22.843799111459955 a43.85734435681812,43.85734435681812 0 0,0 0.7542610467391847,0.03248006730284756 l -1.1798885093062685 22.82687131763291" fill="#e8ff1a" stroke="none" /><path d="M 101.08401301168833 79.027996857942 l 0.1359459321676305 -2.630096212709737 a23.63360729505806,23.63360729505806 0 0,0 0.4060905921370453,0.024496493503009954 l -0.18119857314428775 2.627366449826423" fill="#ff0400" stroke="none" /><path d="M 101.80526077348638 79.07773832637324 l 1.091253844827967 -12.647202459148945 a33.69419414522068,33.69419414522068 0 0,0 0.5774139921813299,0.05483241609108509 l -1.308792964099541 12.626544498542682" fill="#ff930d" stroke="none" /><path d="M 102.16513564639614 79.11191278185805 l 2.1678642770740724 -20.914411608339755 a42.02646542923633,42.02646542923633 0 0,0 0.7189193198085303,0.08077896219294672 l -2.527550300392328 20.873996692676208" fill="#ffff18" stroke="none" /><path d="M 103.59715602781102 79.31037775812273 l 5.076175773230715 -29.196442514455764 a50.63443631960383,50.63443631960383 0 0,0 0.8574215521645523,0.15668830815743512 l -5.577992446498168 29.10473872494759" fill="#99ff23" stroke="none" /><path d="M 104.307194497241 79.44645832069477 l 4.661464689582206 -22.244086921384397 a43.72726679603876,43.72726679603876 0 0,0 0.7353620200905209,0.16072165532451538 l -5.043669433826254 22.16055176796401" fill="#eaff1a" stroke="none" /><path d="M 105.36241919743992 79.69619591428918 l 5.093216156338698 -19.28451678187484 a40.94576241525006,40.94576241525006 0 0,0 0.6798987515020068,0.1858420121096294 l -5.4244127970644165 19.193988228938917" fill="#fff216" stroke="none" /><path d="M 106.0581310904928 79.89281104454417 l 12.812853708316952 -42.526394150837916 a65.41467572349428,65.41467572349428 0 0,0 1.0753382332921575,0.3341128235621739 l -13.54297731431983 42.29954119239322" fill="#35ff69" stroke="none" /><path d="M 106.74666289553966 80.11325718540242 l 7.524516938792319 -22.179577590096365 a44.4211873575461,44.4211873575461 0 0,0 0.7219881260003562,0.25188748055305304 l -7.905187068855949 22.046769256371103" fill="#e2ff1b" stroke="none" /><path d="M 109.73455568895987 81.39251694778311 l 20.54369483728574 -39.26901912413377 a65.31815948952647,65.31815948952647 0 0,0 0.9917627954709196,0.5297653384198896 l -21.216602679284975 38.90957505921212" fill="#35ff68" stroke="none" /><line stroke="#e1ed5e" stroke-width="0.3" x1="143.23703022742887" x2="145.7803849466894" y1="26.81831364943548" y2="22.513508569990506" /><path d="M 143.74570117128098 25.957352633546492 a86.0,86.0 0 0,1 28.547481713284135,27.462654790039103" fill="none" id="id50" stroke="none" /><text fill="#e1ed5e" style="font-size:6.75px; font-family:Arial;" text-anchor="middle"><textPath startOffset="19.985693538727396" xlink:href="#id50">February</textPath></text><path d="M 110.99172775467656 82.1063720568725 l 4.802678708166527 -7.818365579310224 a30.175650554899036,30.175650554899036 0 0,0 0.44024959022515964,0.27568425301041993 l -4.93654745076395 7.7345369849768595" fill="#ff6209" stroke="none" /><path d="M 111.60114157652 82.49532879139004 l 13.52425405490351 -20.406407335976166 a45.48115414157094,45.48115414157094 0 0,0 0.6488542987517676,0.4381093189403717 l -13.87351304806182 20.170586104737126" fill="#d5ff1c" stroke="none" /><path d="M 113.06298171725822 83.55741782278167 l 20.568300965407893 -25.88964649798668 a54.065522835641254,54.065522835641254 0 0,0 0.7236968916158406,0.5851792232746772 l -21.010901255588227 25.53176117744787" fill="#73ff27" stroke="none" /><path d="M 113.34407831869373 83.78471172551755 l 12.987984914009811 -15.782575195940142 a41.439604495734535,41.439604495734535 0 0,0 0.5468892408279954,0.45800401150085074 l -13.257731691796923 15.55667002704547" fill="#fff817" stroke="none" /><path d="M 114.16331599549186 84.49514656593476 l 15.832831545890462 -17.332504100269567 a44.475396762278706,44.475396762278706 0 0,0 0.5607968775117903,0.5211995797955986 l -16.128836307197098 17.057399934399328" fill="#e1ff1b" stroke="none" /><path d="M 115.19652480421416 85.50635884689758 l 17.58452020618328 -16.771184793988063 a45.29995864761429,45.29995864761429 0 0,0 0.5333157186227128,0.5689040242635867 l -17.870603246776454 16.466011352846422" fill="#d7ff1c" stroke="none" /><path d="M 115.4437574822437 85.77008943001954 l 14.899272868471513 -13.728221303646373 a41.259624679916,41.259624679916 0 0,0 0.47675763401796106,0.5264476872041913 l -15.13337414310551 13.469720829172633" fill="#fff617" stroke="none" /><path d="M 116.60985879189232 87.15038557335679 l 13.053352240407708 -10.098252210685363 a37.50347546496703,37.50347546496703 0 0,0 0.3906148766382353,0.514003390294745 l -13.225243057270056 9.872064044509585" fill="#ffc612" stroke="none" /><path d="M 117.2510076193507 88.02491185347247 l 26.236276746106654 -18.21236959624872 a52.93794958679504,52.93794958679504 0 0,0 0.5131843511206408,0.7530347116466184 l -26.54588556289603 17.758056861331696" fill="#80ff26" stroke="none" /><line stroke="#e1ed5e" stroke-width="0.3" x1="172.23445277983987" x2="176.4835382374775" y1="55.19839476539836" y2="52.563006222186495" /><path d="M 173.08426987136738 54.67131705675599 a86.0,86.0 0 0,1 12.851231095245387,41.99856678651699" fill="none" id="id51" stroke="none" /><text fill="#e1ed5e" style="font-size:6.75px; font-family:Arial;" text-anchor="middle"><textPath startOffset="22.20632615414155" xlink:href="#id51">March</textPath></text><path d="M 118.73160827565052 90.50648371742162 l 17.360917130141626 -8.798825334701265 a40.46331859859016,40.46331859859016 0 0,0 0.3095250940733164,0.6239837021745492 l -17.50980223716835 8.498682044027765" fill="#ffeb16" stroke="none" /><path d="M 119.196687751892 91.48605970444005 l 40.53126250391439 -17.976056782399024 a65.33871736535971,65.33871736535971 0 0,0 0.44713241392216924,1.0320432591287623 l -40.83468562767924 17.27571437868366" fill="#35ff68" stroke="none" /><path d="M 120.08093135843002 93.85539295169968 l 42.38079840620208 -12.968190964410724 a65.3204924435251,65.3204924435251 0 0,0 0.3197410200454282,1.078007767817674 l -42.59774532335921 12.236753809846519" fill="#35ff68" stroke="none" /><path d="M 120.37134235888165 94.90015583598534 l 12.083084544025096 -3.0249282108930653 a33.45596735621585,33.45596735621585 0 0,0 0.13504612701675495,0.5598533818140506 l -12.13336347130267 2.8164895974196082" fill="#ff900d" stroke="none" /><path d="M 120.45610955862082 95.25157060432595 l 16.248802288675794 -3.771796890847603 a37.680828144977795,37.680828144977795 0 0,0 0.1412234608295882,0.6330770837611573 l -16.31132013650742 3.4915416375364816" fill="#ffc812" stroke="none" /><path d="M 120.6074358757038 95.95851677861258 l 30.939398430133846 -6.06776410172554 a52.528782666204506,52.528782666204506 0 0,0 0.16637685490185353,0.8887918116908091 l -31.039261008945555 5.534294212572168" fill="#84ff25" stroke="none" /><path d="M 120.91429891909075 98.10471618934814 l 10.526243694399016 -0.9539033241396386 a31.569377364144007,31.569377364144007 0 0,0 0.04438581724635762,0.5416193955579609 l -10.54110399546487 0.772570011373909" fill="#ff760a" stroke="none" /><path d="M 120.96714384426684 98.82574320788733 l 44.02125256472196 -2.4653932459936105 a65.09023521398396,65.09023521398396 0 0,0 0.05302186017829872,1.1192076668126725 l -44.05716803313376 1.7072744725579383" fill="#35ff65" stroke="none" /><line stroke="#e1ed5e" stroke-width="0.3" x1="184.98032266829074" x2="189.97916517819016" y1="98.17113171792111" y2="98.06355123074" /><path d="M 185.9800911702706 98.14961562048488 a86.0,86.0 0 0,1 -9.607161424134198,41.387399972396054" fill="none" id="id52" stroke="none" /><text fill="#e1ed5e" style="font-size:6.75px; font-family:Arial;" text-anchor="middle"><textPath startOffset="21.466115282336823" xlink:href="#id52">April</textPath></text><path d="M 120.9764740272857 100.99374915477107 l 21.0255026424478 0.996071858997406 a42.04908360275729,42.04908360275729 0 0,0 -0.04047454387843244,0.7227001702100706 l -21.005241747681836 -1.3578437455429" fill="#ffff18" stroke="none" /><path d="M 120.95626037817324 101.35467743843564 l 21.446479137210495 1.386366694093934 a42.49124193696814,42.49124193696814 0 0,0 -0.053464992314329156,0.7294873419948582 l -21.41943758623183 -1.7553271725855626" fill="#f9ff18" stroke="none" /><path d="M 120.92983693683757 101.71520430193887 l 20.940364855274375 1.7160670669497857 a42.01056321116309,42.01056321116309 0 0,0 -0.06526721835198296,0.7202183158845448 l -20.907723040645315 -2.076266771382901" fill="#ffff18" stroke="none" /><path d="M 120.8583938346157 102.4346265915055 l 2.3712376980241143 0.2767748274466399 a23.387335863601688,23.387335863601688 0 0,0 -0.05011403888567323,0.39945819756150486 l -2.366122149891593 -0.31755077929553965" fill="#ff0000" stroke="none" /><path d="M 120.81339534386255 102.79330883721812 l 20.848008937116692 2.7979542328552642 a42.03492392501694,42.03492392501694 0 0,0 -0.10241698919373621,0.7163041838822065 l -20.796757896906353 -3.1564038887178802" fill="#ffff18" stroke="none" /><path d="M 120.70491114924044 103.5080841355445 l 10.425243139692858 1.766374644350614 a31.573824942087786,31.573824942087786 0 0,0 -0.0954034057873871,0.5350729649771844 l -10.393293291566282 -1.945566360061017" fill="#ff760a" stroke="none" /><path d="M 120.64145759157962 103.86396538481128 l 10.366411569444375 1.940534252066592 a31.546476284074878,31.546476284074878 0 0,0 -0.10450906997451007,0.5328894962453423 l -10.3314725664942 -2.1186874753798794" fill="#ff750a" stroke="none" /><path d="M 120.5718875245553 104.21870165774334 l 25.52641149281041 5.234731832575765 a47.05763038074002,47.05763038074002 0 0,0 -0.1695552780051688,0.7921058109815923 l -25.4325221760808 -5.6733514629735255" fill="#c2ff1e" stroke="none" /><path d="M 120.41448212921028 104.9243191809786 l 20.428250331080804 4.927640304685265 a42.0141630944861,42.0141630944861 0 0,0 -0.17563657900275684,0.7015808261073158 l -20.340402437782984 -5.278548970189977" fill="#ffff18" stroke="none" /><path d="M 120.02730092923936 106.31721596034902 l 42.301551789586455 13.343187834290736 a65.35608126726514,65.35608126726514 0 0,0 -0.3476562247983532,1.0699758396583983 l -42.06560331377186 -14.06936257392693" fill="#35ff68" stroke="none" /><path d="M 119.26925614724726 108.34839909993367 l 11.506128877160299 4.9850266781329955 a33.53959699191006,33.53959699191006 0 0,0 -0.2340727120802191,0.5277721723495965 l -11.418615080348808 -5.18234718697528" fill="#ff910d" stroke="none" /><path d="M 118.97047184881838 109.00673069616215 l 12.357406848835824 5.867004072294947 a34.67944592488965,34.67944592488965 0 0,0 -0.2606684572214261,0.537054229322816 l -12.254585134999683 -6.078847257583038" fill="#ffa00e" stroke="none" /><path d="M 118.81262510543309 109.33194174019688 l 10.10502190233256 5.012563379511941 a32.27994943606774,32.27994943606774 0 0,0 -0.2512015369559126,0.49564446391000144 l -10.017241695590378 -5.185762055124637" fill="#ff800b" stroke="none" /><line stroke="#e1ed5e" stroke-width="0.3" x1="174.80103733775053" x2="179.2010983576182" y1="140.37084112569926" y2="142.7455964860345" /><path d="M 175.68104954172406 140.8457921977663 a86.0,86.0 0 0,1 -30.038265399797805,32.042727171017184" fill="none" id="id53" stroke="none" /><text fill="#e1ed5e" style="font-size:6.75px; font-family:Arial;" text-anchor="middle"><textPath startOffset="22.206326154141568" xlink:href="#id53">May</textPath></text><path d="M 118.48025628344425 109.97397251340804 l 14.950714496815342 8.069044777297625 a37.9892126828561,37.9892126828561 0 0,0 -0.31553404182161965,0.5727859389642027 l -14.809604045542212 -8.325201234659634" fill="#ffcc13" stroke="none" /><path d="M 118.30583269289576 110.29060199501025 l 15.752467433253184 8.855230762481446 a39.070842318289976,39.070842318289976 0 0,0 -0.33461014283759943,0.5834209884102303 l -15.597705294263205 -9.125071596749992" fill="#ffda14" stroke="none" /><path d="M 118.12598468904814 110.60418214915192 l 40.85884726662988 23.903510140417893 a68.3373340714372,68.3373340714372 0 0,0 -0.6027324368490142,1.010214233263941 l -40.44133395408264 -24.603286467567937" fill="#39ff8b" stroke="none" /><path d="M 117.75023020441432 111.22182372390056 l 17.748512421345147 11.220737729038722 a41.99796771962744,41.99796771962744 0 0,0 -0.3915713251214612,0.6077273922471834 l -17.552736232846634 -11.524586721207358" fill="#ffff18" stroke="none" /><path d="M 117.55443506779139 111.5257021239791 l 17.73614528677695 11.64500746469914 a42.21737609806073,42.21737609806073 0 0,0 -0.4040743568294218,0.6040363379313018 l -17.533067824536808 -11.948580716836249" fill="#fdff18" stroke="none" /><path d="M 116.71984013943494 112.70617746262583 l 42.27917162870155 32.129891985034995 a74.10233810840364,74.10233810840364 0 0,0 -0.7805205722752676,1.0089280548977488 l -41.719844239208214 -32.852898034046" fill="#40ffca" stroke="none" /><path d="M 116.498646956653 112.99209946851258 l 17.248339859614948 13.582456046946534 a42.954232853370584,42.954232853370584 0 0,0 -0.4624372690272386,0.5769615960921207 l -17.011984678532855 -13.877345476616906" fill="#f3ff19" stroke="none" /><path d="M 116.0416608686014 113.55231037782055 l 11.500578817362808 9.715915012425885 a36.05530862065128,36.05530862065128 0 0,0 -0.40460493077113086,0.47064694236758553 l -11.331631377020898 -9.912439053954998" fill="#ffb310" stroke="none" /><path d="M 115.80600337817218 113.82643327865902 l 16.006926504831423 14.002192459422586 a42.26694829546039,42.26694829546039 0 0,0 -0.483737475008817,0.5434841812381694 l -15.76353018017427 -14.275650810401622" fill="#fcff18" stroke="none" /><path d="M 115.32070863581623 114.36230785411682 l 10.701175122680567 10.031753436877914 a35.668034156784245,35.668034156784245 0 0,0 -0.4237590879670947,0.4443097095669912 l -10.526909483334508 -10.214470263027412" fill="#ffad10" stroke="none" /><path d="M 115.07121518719521 114.62390073753431 l 39.633865191676136 38.457530013925435 a76.22521964468709,76.22521964468709 0 0,0 -0.9218147207604401,0.9337934453336921 l -38.96600984586016 -39.13406395323979" fill="#43ffe0" stroke="none" /><path d="M 114.55890576462653 115.13401014063108 l 7.655736049074676 7.95815213545777 a32.04275689600168,32.04275689600168 0 0,0 -0.400784952566975,0.37896718838750415 l -7.517615262116894 -8.088753960591195" fill="#ff7c0b" stroke="none" /><path d="M 114.0293411484842 115.62618273729858 l 8.5860003568767 9.56327236889254 a33.85206522430968,33.85206522430968 0 0,0 -0.43694576899781473,0.3855538383271404 l -8.420112234972297 -9.709649348991968" fill="#ff950d" stroke="none" /><path d="M 113.48314897796784 116.09983520530334 l 13.493839061844334 16.112599922879603 a42.01664980204352,42.01664980204352 0 0,0 -0.5584810503917684,0.45959188327609357 l -13.214487882907875 -16.342486925012874" fill="#ffff18" stroke="none" /><path d="M 113.20401910651253 116.32954008644616 l 39.612057319537584 48.98862025933848 a84.0,84.0 0 0,0 -1.1321700291305956,0.899464343979496 l -38.762929797689644 -49.6632185173231" fill="#4dd2ff" stroke="none" /><line stroke="#e1ed5e" stroke-width="0.3" x1="143.8653032363475" x2="146.44561519142675" y1="172.8068346515853" y2="177.08958963109032" /><path d="M 144.38136562736335 173.6633856474863 a86.0,86.0 0 0,1 -40.68145358897372,12.25698825130547" fill="none" id="id54" stroke="none" /><text fill="#e1ed5e" style="font-size:6.75px; font-family:Arial;" text-anchor="middle"><textPath startOffset="21.466115282336833" xlink:href="#id54">June</textPath></text><line stroke="#e1ed5e" stroke-width="0.3" x1="102.19456741930631" x2="102.32365962044197" y1="184.97166512339345" y2="189.96999836594603" /><path d="M 102.22038585953345 185.97133177190398 a86.0,86.0 0 0,1 -42.740103519485714,-10.115201625700543" fill="none" id="id55" stroke="none" /><text fill="#e1ed5e" style="font-size:6.75px; font-family:Arial;" text-anchor="middle"><textPath startOffset="22.20632615414155" xlink:href="#id55">July</textPath></text><line stroke="#e1ed5e" stroke-width="0.3" x1="58.666819895761336" x2="56.23545636021788" y1="174.27360380694188" y2="178.64263932499728" /><path d="M 58.180547188652646 175.14741091055294 a86.0,86.0 0 0,1 -31.652253787137756,-30.449443065178592" fill="none" id="id56" stroke="none" /><text fill="#e1ed5e" style="font-size:6.75px; font-family:Arial;" text-anchor="middle"><textPath startOffset="22.20632615414155" xlink:href="#id56">August</textPath></text><line stroke="#e1ed5e" stroke-width="0.3" x1="26.63291911575756" x2="22.317208475507996" y1="142.92168965132927" y2="145.44649492493687" /><path d="M 25.769776987707644 143.4266507060508 a86.0,86.0 0 0,1 -11.730757126820373,-40.83630448921669" fill="none" id="id57" stroke="none" /><text fill="#e1ed5e" style="font-size:6.75px; font-family:Arial;" text-anchor="middle"><textPath startOffset="21.46611528233685" xlink:href="#id57">September</textPath></text><line stroke="#e1ed5e" stroke-width="0.3" x1="15.007084014347285" x2="10.007500721073583" y1="101.09737516637583" y2="101.16192664675087" /><path d="M 14.007167355692545 101.11028546245083 a86.0,86.0 0 0,1 10.666146001902534,-42.60595125391555" fill="none" id="id58" stroke="none" /><text fill="#e1ed5e" style="font-size:6.75px; font-family:Arial;" text-anchor="middle"><textPath startOffset="22.20632615414155" xlink:href="#id58">October</textPath></text><line stroke="#e1ed5e" stroke-width="0.3" x1="26.266209847984243" x2="21.928928074336255" y1="57.711370442889674" y2="55.22380399835377" /><path d="M 25.398753493254645 57.213857153982495 a86.0,86.0 0 0,1 29.58750427330803,-30.492523968695096" fill="none" id="id59" stroke="none" /><text fill="#e1ed5e" style="font-size:6.75px; font-family:Arial;" text-anchor="middle"><textPath startOffset="21.46611528233685" xlink:href="#id59">November</textPath></text><line stroke="#e1ed5e" stroke-width="0.3" x1="56.762969772571076" x2="54.21961505331055" y1="26.818313649435495" y2="22.513508569990535" /><path d="M 56.25429882871897 25.957352633546506 a86.0,86.0 0 0,1 42.265352541879196,-11.944610805530505" fill="none" id="id60" stroke="none" /><text fill="#e1ed5e" style="font-size:6.75px; font-family:Arial;" text-anchor="middle"><textPath startOffset="22.20632615414155" xlink:href="#id60">December</textPath></text></svg>