<?xml version="1.0" encoding="utf-8" ?>
<svg baseProfile="full" height="200mm" version="1.1" viewBox="0,0,200,200" width="200mm" xmlns="http://www.w3.org/2000/svg" xmlns:ev="http://www.w3.org/2001/xml-events" xmlns:xlink="http://www.w3.org/1999/xlink"><defs /><rect fill="#1a1a1a" height="200" width="200" x="0" y="0" /><text alignment-baseline="middle" fill="#e1ed5e" style="dominant-baseline: central; font-size:9.0px; font-family:Arial;" text-anchor="middle" x="100.0" y="100.0">2025</text><line stroke="#e1ed5e" stroke-width="0.3" x1="100.0" x2="100.0" y1="15.0" y2="10.0" /><path d="M 100.0 14.0 a86.0,86.0 0 0,1 42.46469731375804,11.215312516191453" fill="none" id="id49" stroke="none" /><text fill="#e1ed5e" style="font-size:6.75px; font-family:Arial;" text-anchor="middle"><textPath startOffset="22.20632615414155" xlink:href="#id49">January</textPath></text><path d="M 100.0 79.0 l 0.0 -16.082812720775756 a37.082812720775756,37.082812720775756 0 0,0 0.6383196626228301,0.005494218860904332 l -0.2768391833503017 16.08042987852341" fill="#ffbb11" stroke="none" /><path d="M 100.72285384407766 79.0124445844662 l 0.9334345617703438 -27.101619161929605 a48.11768908442195,48.11768908442195 0 0,0 0.8275306922418466,0.03563521236498564 l -1.399806086401522 27.081536223040423" fill="#b9ff1f" stroke="none" /><path d="M 101.08401301168833 79.027996857942 l 0.16128468221261505 -3.1203157394399432 a24.124481246945333,24.124481246945333 0 0,0 0.4145251612359504,0.025005289744864996 l -0.21497189228817737 3.117077180314774" fill="#ff0400" stroke="none" /><path d="M 101.80526077348638 79.07773832637324 l 1.2946509451959916 -15.004494779492411 a36.06024517256316,36.06024517256316 0 0,0 0.617960768979562,0.058682821115310445 l -1.5527368412657978 14.979986413861923" fill="#ffae10" stroke="none" /><path d="M 102.16513564639614 79.11191278185805 l 2.5719291150016796 -24.812616134446404 a45.945555492070795,45.945555492070795 0 0,0 0.7859606361187351,0.08831183522385894 l -2.99865645463014 24.764668345751947" fill="#d3ff1c" stroke="none" /><path d="M 103.59715602781102 79.31037775812273 l 6.0223162501939935 -34.63832185045775 a56.15795263710971,56.15795263710971 0 0,0 0.9509543784108775,0.17378083430717134 l -6.617665749707772 34.52952553479984" fill="#5fff29" stroke="none" /><path d="M 104.307194497241 79.44645832069477 l 5.530307815150689 -26.390127553073665 a47.96336657017841,47.96336657017841 0 0,0 0.806600565635712,0.17629164214750165 l -5.983751104939929 26.291022412830294" fill="#bbff1f" stroke="none" /><path d="M 105.36241919743992 79.69619591428918 l 6.042532763704406 -22.87892775602377 a44.66342193060412,44.66342193060412 0 0,0 0.7416299762711267,0.20271548774955514 l -6.435460629199244 22.771525727447923" fill="#e2ff1b" stroke="none" /><path d="M 106.0581310904928 79.89281104454417 l 15.201021506362338 -50.452822360354816 a73.69305778717353,73.69305778717353 0 0,0 1.2114248322765053,0.3763955923022309 l -16.067231711349564 50.18368663317006" fill="#40ffc5" stroke="none" /><path d="M 106.74666289553966 80.11325718540242 l 8.92699990302116 -26.313594428244983 a48.786625901730226,48.786625901730226 0 0,0 0.7929406372044451,0.2766414185230819 l -9.378622544288879 26.156032156549692" fill="#b1ff20" stroke="none" /><path d="M 109.73455568895987 81.39251694778311 l 24.37280204323398 -46.58831028814748 a73.57855204304678,73.57855204304678 0 0,0 1.1171850375333294,0.5967615564823185 l -25.171132127295618 46.16187000516341" fill="#40ffc4" stroke="none" /><line stroke="#e1ed5e" stroke-width="0.3" x1="143.23703022742887" x2="145.7803849466894" y1="26.81831364943548" y2="22.513508569990506" /><path d="M 143.74570117128098 25.957352633546492 a86.0,86.0 0 0,1 28.547481713284135,27.462654790039103" fill="none" id="id50" stroke="none" /><text fill="#e1ed5e" style="font-size:6.75px; font-family:Arial;" text-anchor="middle"><textPath startOffset="19.985693538727396" xlink:href="#id50">February</textPath></text><path d="M 110.99172775467656 82.1063720568725 l 5.697842494182163 -9.275618532860703 a31.88588573592691,31.88588573592691 0 0,0 0.4652011761492594,0.2913089338270283 l -5.856662822703686 9.17616525771073" fill="#ff750a" stroke="none" /><path d="M 111.60114157652 82.49532879139004 l 16.04501865284317 -24.20992573890163 a50.044158239708324,50.044158239708324 0 0,0 0.713952137190133,0.48206367004444517 l -16.459375484439843 23.930150156558515" fill="#a3ff22" stroke="none" /><path d="M 113.06298171725822 83.55741782278167 l 24.401994469159384 -30.715177287363947 a60.22855401193222,60.22855401193222 0 0,0 0.8061924686728157,0.6518849094052493 l -24.92709033639669 30.29058628069457" fill="#35ff2f" stroke="none" /><path d="M 113.34407831869373 83.78471172551755 l 15.40879514405276 -18.724264745451514 a45.24931046543679,45.24931046543679 0 0,0 0.5971669215853685,0.5001101232264579 l -15.728819602597246 18.456253464831235" fill="#dbff1b" stroke="none" /><path d="M 114.16331599549186 84.49514656593476 l 18.78388829800408 -20.56308247836225 a48.85093931277405,48.85093931277405 0 0,0 0.6159687428209025,0.5724758157533213 l -19.13506492461983 20.23670207653429" fill="#b0ff20" stroke="none" /><path d="M 115.19652480421416 85.50635884689758 l 20.86207147278566 -19.897139742968104 a49.82919000053276,49.82919000053276 0 0,0 0.5866382898987783,0.6257848254921289 l -21.201477084654904 19.535085500597923" fill="#a5ff21" stroke="none" /><path d="M 115.4437574822437 85.77008943001954 l 17.676325076261755 -16.287003038626118 a45.035784492749485,45.035784492749485 0 0,0 0.5203914050957804,0.5746291870457853 l -17.95406012197357 15.980321064310784" fill="#deff1b" stroke="none" /><path d="M 116.60985879189232 87.15038557335679 l 15.486346184360263 -11.980449673881653 a40.57953249008415,40.57953249008415 0 0,0 0.42265333762089013,0.5561622494417356 l -15.690275462205268 11.712102648558885" fill="#ffe915" stroke="none" /><path d="M 117.2510076193507 88.02491185347247 l 31.12641540623884 -21.606944730407122 a58.89081414570833,58.89081414570833 0 0,0 0.5708918550912329,0.8377133529914811 l -31.493731726998806 21.06795335414523" fill="#43ff2d" stroke="none" /><line stroke="#e1ed5e" stroke-width="0.3" x1="172.23445277983987" x2="176.4835382374775" y1="55.19839476539836" y2="52.563006222186495" /><path d="M 173.08426987136738 54.67131705675599 a86.0,86.0 0 0,1 12.851231095245387,41.99856678651699" fill="none" id="id51" stroke="none" /><text fill="#e1ed5e" style="font-size:6.75px; font-family:Arial;" text-anchor="middle"><textPath startOffset="22.20632615414155" xlink:href="#id51">March</textPath></text><path d="M 118.73160827565052 90.50648371742162 l 20.59679136851103 -10.43882465127191 a44.091056164194235,44.091056164194235 0 0,0 0.3372755567184151,0.6799269415108845 l -20.773426938182855 10.082738121262075" fill="#e9ff1a" stroke="none" /><path d="M 119.196687751892 91.48605970444005 l 48.08582124075081 -21.32658594013806 a73.60294166925968,73.60294166925968 0 0,0 0.5036869762276135,1.1625789863159912 l -48.445798926821105 20.495707809235466" fill="#40ffc4" stroke="none" /><path d="M 120.08093135843002 93.85539295169968 l 50.28008925219426 -15.385311831092105 a73.5813198326988,73.5813198326988 0 0,0 0.3601774172161515,1.2143391970675306 l -50.53747256652211 14.517543247278043" fill="#40ffc4" stroke="none" /><path d="M 120.37134235888165 94.90015583598534 l 14.335231806923263 -3.588739857315334 a35.77761566429808,35.77761566429808 0 0,0 0.144417537771771,0.5987039295451483 l -14.394882144955853 3.3414506961107797" fill="#ffaa0f" stroke="none" /><path d="M 120.45610955862082 95.25157060432595 l 19.277391178084013 -4.474816224444065 a40.78994165922222,40.78994165922222 0 0,0 0.1528760648781052,0.6853134228646175 l -19.351561629964156 4.142324632029483" fill="#ffec16" stroke="none" /><path d="M 120.6074358757038 95.95851677861258 l 36.706144597990246 -7.198725179074808 a58.405383241619305,58.405383241619305 0 0,0 0.18499008505159734,0.9882244314260947 l -36.8246204069517 6.56582267018615" fill="#48ff2c" stroke="none" /><path d="M 120.91429891909075 98.10471618934814 l 12.48821382202362 -1.1316998754012837 a33.539387109127986,33.539387109127986 0 0,0 0.047155605560704174,0.5754178286095228 l -12.50584391140382 0.9165681295839921" fill="#ff8c0c" stroke="none" /><path d="M 120.96714384426684 98.82574320788733 l 52.22630510008733 -2.9249140439075596 a73.30814531764298,73.30814531764298 0 0,0 0.05971608826092247,1.2605122413460965 l -52.26891479658175 2.0254906959384633" fill="#3fffc1" stroke="none" /><line stroke="#e1ed5e" stroke-width="0.3" x1="184.98032266829074" x2="189.97916517819016" y1="98.17113171792111" y2="98.06355123074" /><path d="M 185.9800911702706 98.14961562048488 a86.0,86.0 0 0,1 -9.607161424134198,41.387399972396054" fill="none" id="id52" stroke="none" /><text fill="#e1ed5e" style="font-size:6.75px; font-family:Arial;" text-anchor="middle"><textPath startOffset="21.466115282336823" xlink:href="#id52">April</textPath></text><path d="M 120.9764740272857 100.99374915477107 l 24.944413252955947 1.1817281376336566 a45.972389431640686,45.972389431640686 0 0,0 -0.044250940420621006,0.7901302673105522 l -24.920375961647796 -1.610930121279632" fill="#d2ff1c" stroke="none" /><path d="M 120.95626037817324 101.35467743843564 l 25.443854899308846 1.6447694176783483 a46.496960967425366,46.496960967425366 0 0,0 -0.05850522478139738,0.798257309524665 l -25.41177311586311 -2.0824998636997836" fill="#ccff1d" stroke="none" /><path d="M 120.92983693683757 101.71520430193887 l 24.843406766556487 2.0359221282711717 a45.92668928439894,45.92668928439894 0 0,0 -0.07135127521718254,0.7873553764157405 l -24.80468089506223 -2.463258893235483" fill="#d3ff1c" stroke="none" /><path d="M 120.8583938346157 102.4346265915055 l 2.8132089903566415 0.32836245540719183 a23.83230766788223,23.83230766788223 0 0,0 -0.051067517915212815,0.40705836356332076 l -2.807139963194581 -0.37673857325790755" fill="#ff0000" stroke="none" /><path d="M 120.81339534386255 102.79330883721812 l 24.733836773008253 3.3194605538844644 a45.955590553673744,45.955590553673744 0 0,0 -0.11196959056053467,0.7831150555926893 l -24.673033131431115 -3.744721081457563" fill="#d3ff1c" stroke="none" /><path d="M 120.70491114924044 103.5080841355445 l 12.368387931617471 2.0956064564787584 a33.544663664180725,33.544663664180725 0 0,0 -0.101358488096553,0.5684722290972692 l -12.33048300118173 -2.3081974363092463" fill="#ff8c0c" stroke="none" /><path d="M 120.64145759157962 103.86396538481128 l 12.298590836843829 2.3022274015623476 a33.512217532500124,33.512217532500124 0 0,0 -0.11102129618429322,0.5660951973889221 l -12.25713960768387 -2.513586326019215" fill="#ff8b0c" stroke="none" /><path d="M 120.5718875245553 104.21870165774334 l 30.284239476689965 6.210425325887542 a51.914471423751245,51.914471423751245 0 0,0 -0.1870551611614556,0.8738594390766793 l -30.172850276804066 -6.7307985843803895" fill="#8dff24" stroke="none" /><path d="M 120.41448212921028 104.9243191809786 l 24.235840015760456 5.846095487574081 a45.930960144354046,45.930960144354046 0 0,0 -0.1920104106780373,0.7669861443987014 l -24.131618290787358 -6.2624094713701774" fill="#d3ff1c" stroke="none" /><path d="M 120.02730092923936 106.31721596034902 l 50.186071982434996 15.830203782068212 a73.62354200173107,73.62354200173107 0 0,0 -0.3916342928201986,1.2053264156060064 l -49.90614543859855 -16.691729097652015" fill="#40ffc4" stroke="none" /><path d="M 119.26925614724726 108.34839909993367 l 13.650738274109681 5.91417801757166 a35.876832897218776,35.876832897218776 0 0,0 -0.2503842720330366,0.5645504339171339 l -13.546912917345372 -6.148276787981482" fill="#ffab0f" stroke="none" /><path d="M 118.97047184881838 109.00673069616215 l 14.66068461782954 6.960545801204327 a37.22913649317569,37.22913649317569 0 0,0 -0.2798332359282894,0.5765393498789014 l -14.538698125286535 -7.211874107048503" fill="#ffbd11" stroke="none" /><path d="M 118.81262510543309 109.33194174019688 l 11.988481157785488 5.946847241727707 a34.38240160012477,34.38240160012477 0 0,0 -0.26756275263976675,0.5279266946431799 l -11.884339735359452 -6.152328148073582" fill="#ff970e" stroke="none" /><line stroke="#e1ed5e" stroke-width="0.3" x1="174.80103733775053" x2="179.2010983576182" y1="140.37084112569926" y2="142.7455964860345" /><path d="M 175.68104954172406 140.8457921977663 a86.0,86.0 0 0,1 -30.038265399797805,32.042727171017184" fill="none" id="id53" stroke="none" /><text fill="#e1ed5e" style="font-size:6.75px; font-family:Arial;" text-anchor="middle"><textPath startOffset="22.206326154141568" xlink:href="#id53">May</textPath></text><path d="M 118.48025628344425 109.97397251340804 l 17.737354829397013 9.573021435176734 a41.155805509636345,41.155805509636345 0 0,0 -0.34183539851933886,0.6205305411160436 l -17.569943021426166 -9.876922494690582" fill="#fff016" stroke="none" /><path d="M 118.30583269289576 110.29060199501025 l 18.688545243884445 10.505743398670512 a42.43903840407552,42.43903840407552 0 0,0 -0.36345601629454694,0.6337162002083279 l -18.50493723143752 -10.825879444737156" fill="#feff18" stroke="none" /><path d="M 118.12598468904814 110.60418214915192 l 48.474464015932284 28.358848075053203 a77.16046586145687,77.16046586145687 0 0,0 -0.680552091313137,1.140644450323972 l -47.97913104892092 -29.189054619263278" fill="#44ffe9" stroke="none" /><path d="M 117.75023020441432 111.22182372390056 l 21.056629940891284 13.312153515469577 a45.91174613886125,45.91174613886125 0 0,0 -0.42806174323126284,0.6643613314995032 l -20.82436333428297 -13.672636446890532" fill="#d3ff1c" stroke="none" /><path d="M 117.55443506779139 111.5257021239791 l 21.04195771541967 13.815502224749409 a46.17204970238946,46.17204970238946 0 0,0 -0.441925647952482,0.6606188824296568 l -20.801028962056467 -14.175658021384873" fill="#d0ff1d" stroke="none" /><path d="M 116.71984013943494 112.70617746262583 l 50.159520418304794 38.11853238787748 a84.0,84.0 0 0,0 -0.8847727311277263,1.1436880235469893 l -49.495940869959 -38.97629840553772" fill="#4dd2ff" stroke="none" /><path d="M 116.498646956653 112.99209946851258 l 20.46323099629724 16.1140688233126 a47.04624803787055,47.04624803787055 0 0,0 -0.506491142208905,0.6319255764789112 l -20.182821942033485 -16.46392223336976" fill="#c6ff1e" stroke="none" /><path d="M 116.0416608686014 113.55231037782055 l 13.64415374733182 11.526849242179852 a38.86144408867243,38.86144408867243 0 0,0 -0.4360947803996209,0.5072767516361417 l -13.443716457361422 -11.760003092977522" fill="#ffd313" stroke="none" /><path d="M 115.80600337817218 113.82643327865902 l 18.99043254452841 16.61203925037759 a46.2308615842656,46.2308615842656 0 0,0 -0.5291037359481352,0.5944536563279237 l -18.701669958931937 -16.93646707644638" fill="#cfff1d" stroke="none" /><line stroke="#e1ed5e" stroke-width="0.3" x1="143.8653032363475" x2="146.44561519142675" y1="172.8068346515853" y2="177.08958963109032" /><path d="M 144.38136562736335 173.6633856474863 a86.0,86.0 0 0,1 -40.68145358897372,12.25698825130547" fill="none" id="id54" stroke="none" /><text fill="#e1ed5e" style="font-size:6.75px; font-family:Arial;" text-anchor="middle"><textPath startOffset="21.466115282336833" xlink:href="#id54">June</textPath></text><line stroke="#e1ed5e" stroke-width="0.3" x1="102.19456741930631" x2="102.32365962044197" y1="184.97166512339345" y2="189.96999836594603" /><path d="M 102.22038585953345 185.97133177190398 a86.0,86.0 0 0,1 -42.740103519485714,-10.115201625700543" fill="none" id="id55" stroke="none" /><text fill="#e1ed5e" style="font-size:6.75px; font-family:Arial;" text-anchor="middle"><textPath startOffset="22.20632615414155" xlink:href="#id55">July</textPath></text><line stroke="#e1ed5e" stroke-width="0.3" x1="58.666819895761336" x2="56.23545636021788" y1="174.27360380694188" y2="178.64263932499728" /><path d="M 58.180547188652646 175.14741091055294 a86.0,86.0 0 0,1 -31.652253787137756,-30.449443065178592" fill="none" id="id56" stroke="none" /><text fill="#e1ed5e" style="font-size:6.75px; font-family:Arial;" text-anchor="middle"><textPath startOffset="22.20632615414155" xlink:href="#id56">August</textPath></text><line stroke="#e1ed5e" stroke-width="0.3" x1="26.63291911575756" x2="22.317208475507996" y1="142.92168965132927" y2="145.44649492493687" /><path d="M 25.769776987707644 143.4266507060508 a86.0,86.0 0 0,1 -11.730757126820373,-40.83630448921669" fill="none" id="id57" stroke="none" /><text fill="#e1ed5e" style="font-size:6.75px; font-family:Arial;" text-anchor="middle"><textPath startOffset="21.46611528233685" xlink:href="#id57">September</textPath></text><line stroke="#e1ed5e" stroke-width="0.3" x1="15.007084014347285" x2="10.007500721073583" y1="101.09737516637583" y2="101.16192664675087" /><path d="M 14.007167355692545 101.11028546245083 a86.0,86.0 0 0,1 10.666146001902534,-42.60595125391555" fill="none" id="id58" stroke="none" /><text fill="#e1ed5e" style="font-size:6.75px; font-family:Arial;" text-anchor="middle"><textPath startOffset="22.20632615414155" xlink:href="#id58">October</textPath></text><line stroke="#e1ed5e" stroke-width="0.3" x1="26.266209847984243" x2="21.928928074336255" y1="57.711370442889674" y2="55.22380399835377" /><path d="M 25.398753493254645 57.213857153982495 a86.0,86.0 0 0,1 29.58750427330803,-30.492523968695096" fill="none" id="id59" stroke="none" /><text fill="#e1ed5e" style="font-size:6.75px; font-family:Arial;" text-anchor="middle"><textPath startOffset="21.46611528233685" xlink:href="#id59">November</textPath></text><line stroke="#e1ed5e" stroke-width="0.3" x1="56.762969772571076" x2="54.21961505331055" y1="26.818313649435495" y2="22.513508569990535" /><path d="M 56.25429882871897 25.957352633546506 a86.0,86.0 0 0,1 42.265352541879196,-11.944610805530505" fill="none" id="id60" stroke="none" /><text fill="#e1ed5e" style="font-size:6.75px; font-family:Arial;" text-anchor="middle"><textPath startOffset="22.20632615414155" xlink:href="#id60">December</textPath></text></svg>