<?xml version="1.0" encoding="utf-8" ?>
<svg baseProfile="full" height="200mm" version="1.1" viewBox="0,0,200,200" width="200mm" xmlns="http://www.w3.org/2000/svg" xmlns:ev="http://www.w3.org/2001/xml-events" xmlns:xlink="http://www.w3.org/1999/xlink"><defs /><rect fill="#1a1a1a" height="200" width="200" x="0" y="0" /><text alignment-baseline="middle" fill="#e1ed5e" style="dominant-baseline: central; font-size:9.0px; font-family:Arial;" text-anchor="middle" x="100.0" y="100.0">2024</text><line stroke="#e1ed5e" stroke-width="0.3" x1="100.0" x2="100.0" y1="15.0" y2="10.0" /><path d="M 100.0 14.0 a86.0,86.0 0 0,1 42.35913384403234,11.155469271406648" fill="none" id="id37" stroke="none" /><text fill="#e1ed5e" style="font-size:6.75px; font-family:Arial;" text-anchor="middle"><textPath startOffset="22.145653131862478" xlink:href="#id37">January</textPath></text><path d="M 100.72087961077811 79.0123766808444 l 0.515577769093003 -15.010484202451886 a36.01933608479551,36.01933608479551 0 0,0 0.6177731894287655,0.02652983886850351 l -0.7731767191226048 14.999421795157552" fill="#ff970e" stroke="none" /><path d="M 108.07796709384702 80.6158196554323 l 6.270328737474569 -15.046506336911586 a37.300747695204656,37.300747695204656 0 0,0 0.5889342669355851,0.25138101835857657 l -6.527698079580584 14.936650668893607" fill="#ffa90f" stroke="none" /><path d="M 109.06512990194946 81.05736502329252 l 5.621553823499862 -11.746885398473122 a34.022717994158015,34.022717994158015 0 0,0 0.5246623102216722,0.256638627093065 l -5.822376382983601 11.648653021282836" fill="#ff7b0b" stroke="none" /><line stroke="#e1ed5e" stroke-width="0.3" x1="143.13028292997686" x2="145.6673583964461" y1="26.7553504044142" y2="22.446841604673864" /><path d="M 143.63769802327073 25.89364864446614 a86.0,86.0 0 0,1 29.32050498858742,28.57503671076993" fill="none" id="id38" stroke="none" /><text fill="#e1ed5e" style="font-size:6.75px; font-family:Arial;" text-anchor="middle"><textPath startOffset="20.669276256404974" xlink:href="#id38">February</textPath></text><path d="M 116.1254893667686 86.54754324733833 l 8.123480842555686 -6.776896640467965 a31.579095853377794,31.579095853377794 0 0,0 0.3436906096598934,0.4192466604736305 l -8.238618271454207 6.6364476982958385" fill="#ff5808" stroke="none" /><line stroke="#e1ed5e" stroke-width="0.3" x1="172.87174338648825" x2="177.1583165268699" y1="56.24261187166439" y2="53.66864786411523" /><path d="M 173.72905801456457 55.72781907015455 a86.0,86.0 0 0,1 12.242430191666344,42.057860355516425" fill="none" id="id39" stroke="none" /><text fill="#e1ed5e" style="font-size:6.75px; font-family:Arial;" text-anchor="middle"><textPath startOffset="22.145653131862474" xlink:href="#id39">March</textPath></text><path d="M 119.0197475246899 91.09779779509293 l 15.006535625342872 -7.023816397064502 a37.568950125290286,37.568950125290286 0 0,0 0.2683774360894907,0.5864531322712941 l -15.124897526287414 6.765174282578524" fill="#ffad10" stroke="none" /><path d="M 119.16976305983485 91.42560881287824 l 18.606888323706105 -8.32262447712898 a41.3833846865082,41.3833846865082 0 0,0 0.2844932664852165,0.6509762687148062 l -18.747015472208293 8.001986138638323" fill="#ffe115" stroke="none" /><path d="M 119.58574465831526 92.42381321644754 l 15.314139238786685 -5.923838042742959 a37.419948775242716,37.419948775242716 0 0,0 0.22660329987839412,0.6010921750190069 l -15.41357322247952 5.660077587529795" fill="#ffab0f" stroke="none" /><line stroke="#e1ed5e" stroke-width="0.3" x1="184.99686870605535" x2="189.99668451229388" y1="99.2704041080226" y2="99.22748670261217" /><path d="M 185.99683186730306 99.26182062694052 a86.0,86.0 0 0,1 -10.086455211305974,41.156179273409016" fill="none" id="id40" stroke="none" /><text fill="#e1ed5e" style="font-size:6.75px; font-family:Arial;" text-anchor="middle"><textPath startOffset="21.40746469413373" xlink:href="#id40">April</textPath></text><path d="M 120.7213421655516 103.40968896794604 l 19.230763849352936 3.1644148732471185 a40.48937658622275,40.48937658622275 0 0,0 -0.11874026888991344,0.6848623169584923 l -19.17360876297079 -3.494070223126199" fill="#ffd513" stroke="none" /><path d="M 120.592083275326 104.11899336999214 l 16.53931891339677 3.308326993320606 a37.86695282538544,37.86695282538544 0 0,0 -0.13297122787855817,0.636315461525239 l -16.480089974693847 -3.591758906131254" fill="#ffb110" stroke="none" /><path d="M 119.83427380445688 106.89939002012753 l 20.321436576036415 7.068850520549693 a42.51579494686976,42.51579494686976 0 0,0 -0.24570045929517578,0.6872679136256639 l -20.1970959466973 -7.416653390556278" fill="#fff016" stroke="none" /><path d="M 119.58574465831526 107.57618678355244 l 23.040692248555647 8.912634732184955 a45.70442383788786,45.70442383788786 0 0,0 -0.2893336507104124,0.7293098065198262 l -22.88429992287911 -9.306845555918345" fill="#e5ff1a" stroke="none" /><path d="M 119.4528033332814 107.91128576633889 l 15.927914421593783 6.477744132406376 a38.1947557954901,38.1947557954901 0 0,0 -0.25222026205117926,0.6052368113604025 l -15.814368315006119 -6.750213453208056" fill="#ffb610" stroke="none" /><path d="M 119.16976305983485 108.57439118712176 l 15.614552482174421 6.984190716187186 a38.10535498546156,38.10535498546156 0 0,0 -0.27220929619200346,0.5948264381359397 l -15.49235872112736 -7.251206136537815" fill="#ffb410" stroke="none" /><path d="M 118.8641267826498 109.22738970284198 l 33.91674965420673 16.590381845871732 a58.75694210205539,58.75694210205539 0 0,0 -0.45097376321059557,0.9022496217687647 l -33.626955977784405 -17.170163323804243" fill="#4dff2c" stroke="none" /><line stroke="#e1ed5e" stroke-width="0.3" x1="174.33088141563837" x2="178.70328620479359" y1="141.23008692659167" y2="143.65538615756765" /><path d="M 175.20536237346943 141.71514677278685 a86.0,86.0 0 0,1 -30.301960400862466,31.631185727798858" fill="none" id="id41" stroke="none" /><text fill="#e1ed5e" style="font-size:6.75px; font-family:Arial;" text-anchor="middle"><textPath startOffset="22.145653131862474" xlink:href="#id41">May</textPath></text><path d="M 118.36410011445183 110.18625677009912 l 22.098683824989493 12.257767400507246 a46.27062896806865,46.27062896806865 0 0,0 -0.39124380400972786,0.6912903134279502 l -21.885006655958385 -12.63531448403432" fill="#deff1b" stroke="none" /><path d="M 117.62189284568427 111.42229804090321 l 26.58121546552765 17.229622719620675 a52.676819832257074,52.676819832257074 0 0,0 -0.49836174933549837,0.7545832071738541 l -26.281529277271424 -17.68338580513359" fill="#91ff24" stroke="none" /><path d="M 116.79662413953412 112.60449989151573 l 23.235778590876684 17.43656143609535 a50.05056077666954,50.05056077666954 0 0,0 -0.521593631346778,0.6827828068134464 l -22.9330329821756 -17.83286515614967" fill="#b0ff20" stroke="none" /><path d="M 116.57777611688842 112.89097897827486 l 20.727146207287788 16.117554257810028 a47.256240118336336,47.256240118336336 0 0,0 -0.5034670131492771,0.636114124144406 l -20.44741276349695 -16.470988325869115" fill="#d2ff1c" stroke="none" /><path d="M 116.35404254752997 113.17365903436017 l 15.734600529706908 12.674680392801626 a41.20458306645111,41.20458306645111 0 0,0 -0.448449453418266,0.5470354163091184 l -15.514704257050013 -12.942918090809236" fill="#ffde14" stroke="none" /><path d="M 115.89218393027572 113.72728997021213 l 15.35789164014593 13.265781015392653 a41.29398387647966,41.29398387647966 0 0,0 -0.46797672798451034,0.5324716111432911 l -15.127903848202834 -13.527464904347237" fill="#ffe015" stroke="none" /><path d="M 115.6541949942343 113.99807769240083 l 11.351481448504618 10.15056470796099 a36.227937974862115,36.227937974862115 0 0,0 -0.4185229069742534,0.4600299891868106 l -11.175560840688485 -10.343932272705473" fill="#ff9a0e" stroke="none" /><path d="M 115.41159269507618 114.26474011684316 l 14.871587811483701 13.764919658394764 a41.26418360647014,41.26418360647014 0 0,0 -0.48562867876071203,0.5157208279017318 l -14.63310329898673 -14.018181946240993" fill="#ffdf14" stroke="none" /><path d="M 115.16444852881244 114.52719865689866 l 14.63310329898673 14.018181946240993 a41.26418360647014,41.26418360647014 0 0,0 -0.4944101540535371,0.5073083732162413 l -14.390306343782383 -14.267313011524971" fill="#ffdf14" stroke="none" /><path d="M 114.39649973595853 115.28858382429668 l 19.694041641325192 20.914389747150757 a49.72746028917237,49.72746028917237 0 0,0 -0.6264955019372356,0.5798748835583392 l -19.33211636807399 -21.249382376841478" fill="#b4ff20" stroke="none" /><path d="M 113.59037401385872 116.0094264158162 l 13.750606152245819 16.198179471938207 a42.24759251678413,42.24759251678413 0 0,0 -0.556915139453129,0.46459841670511154 l -13.470516678630796 -16.43184007255519" fill="#ffec16" stroke="none" /><path d="M 113.03279911837588 116.46651593811092 l 13.944724917207436 17.618704394669113 a43.46940358717424,43.46940358717424 0 0,0 -0.5890933320736866,0.45808253811966576 l -13.640221640498519 -17.85548798440957" fill="#fffc17" stroke="none" /><path d="M 111.8722381534696 117.32195027204791 l 11.456248274364189 16.71500860642497 a41.26418360647014,41.26418360647014 0 0,0 -0.5877271659686668,0.3954490666937578 l -11.167624820298519 -16.909207347175848" fill="#ffdf14" stroke="none" /><line stroke="#e1ed5e" stroke-width="0.3" x1="143.1302829299769" x2="145.66735839644613" y1="173.24464959558577" y2="177.55315839532614" /><path d="M 143.63769802327073 174.10635135553383 a86.0,86.0 0 0,1 -40.68552437913181,11.842963189579606" fill="none" id="id42" stroke="none" /><text fill="#e1ed5e" style="font-size:6.75px; font-family:Arial;" text-anchor="middle"><textPath startOffset="21.407464694133747" xlink:href="#id42">June</textPath></text><path d="M 107.407793817531 119.65005319985036 l 7.190281479098639 19.073075880138163 a41.3833846865082,41.3833846865082 0 0,0 -0.6668850628183262,0.2448894323875159 l -6.861807264626186 -19.193696161534398" fill="#ffe115" stroke="none" /><path d="M 104.9986988182912 120.39639698878246 l 6.298988863781569 25.702024099449186 a47.462639768449236,47.462639768449236 0 0,0 -0.7930054377797974,0.18714712407417297 l -5.856851272261893 -25.806367367169585" fill="#cfff1d" stroke="none" /><path d="M 103.94208987418118 120.62667999033965 l 4.094854801025598 21.426010639903303 a42.813797646964915,42.813797646964915 0 0,0 -0.7230746166739016,0.13176828204078236 l -3.7264454508006386 -21.49314709587545" fill="#fff417" stroke="none" /><path d="M 103.2317021107853 120.74984581791261 l 3.3523519192594433 21.5245041366494 a42.7839973769554,42.7839973769554 0 0,0 -0.7266656069574584,0.10679482011825867 l -2.982361206694299 -21.578880030066543" fill="#fff316" stroke="none" /><path d="M 102.51750503828377 120.84855314841334 l 2.5936291190947482 21.47896973965235 a42.63499602690783,42.63499602690783 0 0,0 -0.7273613529444589,0.08150235672802542 l -2.22453186454949 -21.520327856887345" fill="#fff116" stroke="none" /><line stroke="#e1ed5e" stroke-width="0.3" x1="101.45913802915013" x2="101.54496967792366" y1="184.9874750549273" y2="189.98673829345242" /><path d="M 101.47630435890484 185.9873277026323 a86.0,86.0 0 0,1 -42.54439059252881,-10.42667462771756" fill="none" id="id43" stroke="none" /><text fill="#e1ed5e" style="font-size:6.75px; font-family:Arial;" text-anchor="middle"><textPath startOffset="22.145653131862474" xlink:href="#id43">July</textPath></text><path d="M 99.27912038922189 120.98762331915562 l -0.692551884277697 20.162892470357 a41.17478279644159,41.17478279644159 0 0,0 -0.7061950512444771,-0.030327054070730018 l 1.0385726961230128 -20.148032847860442" fill="#ffde14" stroke="none" /><path d="M 95.35216902796893 120.47920084513623 l -3.0537411475869973 13.455346949323783 a34.7975250144054,34.7975250144054 0 0,0 -0.5813967931898476,-0.13720806013141099 l 3.2842700945167325 -13.400942745546145" fill="#ff860c" stroke="none" /><path d="M 93.95794788825049 120.11202640906438 l -6.430528012203397 21.405136336736195 a43.35020250713619,43.35020250713619 0 0,0 -0.7108594428687589,-0.2202260725111451 l 6.79702808794379 -21.2915936764184" fill="#fffb17" stroke="none" /><path d="M 93.27111125876986 119.89276391827306 l -7.161525048308673 21.171776285716895 a43.35020250713619,43.35020250713619 0 0,0 -0.7028806540171093,-0.24449837778163 l 7.523911474370804 -21.045719475366674" fill="#fffb17" stroke="none" /><path d="M 89.97174638481275 118.45085714620012 l -11.384558684056156 20.94630570909528 a44.84021600761193,44.84021600761193 0 0,0 -0.673149461939782,-0.37338465926661757 l 11.742452334152041 -20.747788134395517" fill="#f0ff19" stroke="none" /><line stroke="#e1ed5e" stroke-width="0.3" x1="58.13341422392154" x2="55.67067388415222" y1="173.97424548756322" y2="178.32567169271397" /><path d="M 57.64086615596768 174.84453072859336 a86.0,86.0 0 0,1 -31.369924170532247,-30.572349798747897" fill="none" id="id44" stroke="none" /><text fill="#e1ed5e" style="font-size:6.75px; font-family:Arial;" text-anchor="middle"><textPath startOffset="22.145653131862474" xlink:href="#id44">August</textPath></text><path d="M 87.83215693770417 117.11559508785305 l -10.360143105423383 14.572838714044224 a38.88016200570895,38.88016200570895 0 0,0 -0.540654553590672,-0.3913922027093868 l 10.608778669388009 -14.392845739961771" fill="#ffbf11" stroke="none" /><path d="M 87.54013794807813 116.9041958592261 l -11.40443706959211 15.472309170458905 a40.22117415613712,40.22117415613712 0 0,0 -0.5522693024010318,-0.41443318040421023 l 11.668359360903908 -15.274256962790679" fill="#ffd113" stroke="none" /><path d="M 84.83555147118756 114.52719865689866 l -10.996346743797375 10.534251433131097 a36.227937974862115,36.227937974862115 0 0,0 -0.4263582631548589,-0.45277770048113686 l 11.175560840688485 -10.34393227270547" fill="#ff9a0e" stroke="none" /><path d="M 84.1078160697243 113.72728997021213 l -14.230293134995708 12.291788282984971 a39.80397037600391,39.80397037600391 0 0,0 -0.4422134610820747,-0.5209263452247512 l 14.439201159584895 -12.045695155310666" fill="#ffcc13" stroke="none" /><path d="M 83.8745106332314 113.45245675266167 l -3.684170184933706 3.073465800324909 a25.797843471531902,25.797843471531902 0 0,0 -0.2807704372477411,-0.3424942808077365 l 3.736387441420077 -3.009769237818677" fill="#ff0000" stroke="none" /><path d="M 82.576782715395 111.72311816256416 l -17.65336370353299 11.87797094432725 a42.27739278679365,42.27739278679365 0 0,0 -0.39997546347071666,-0.6056138305538366 l 17.854663605924433 -11.573177235434354" fill="#ffed16" stroke="none" /><line stroke="#e1ed5e" stroke-width="0.3" x1="26.387840678322732" x2="22.057713659400534" y1="142.50000000000003" y2="145.00000000000006" /><path d="M 25.521815274538284 143.00000000000003 a86.0,86.0 0 0,1 -11.493303480769212,-40.785679425670985" fill="none" id="id45" stroke="none" /><text fill="#e1ed5e" style="font-size:6.75px; font-family:Arial;" text-anchor="middle"><textPath startOffset="21.40746469413373" xlink:href="#id45">September</textPath></text><path d="M 81.1358732173502 109.22738970284198 l -19.30069179217289 9.440935525551321 a42.48599467686025,42.48599467686025 0 0,0 -0.31484295323448674,-0.6579006812496913 l 19.45991400336729 -9.108222342236527" fill="#ffef16" stroke="none" /><path d="M 80.5471966667186 107.91128576633889 l -17.308149640102773 7.0390737799286045 a39.68476929596585,39.68476929596585 0 0,0 -0.25122599113663624,-0.633253610628214 l 17.426434306205536 -6.740919152086826" fill="#ffca12" stroke="none" /><path d="M 80.41425534168474 107.57618678355246 l -16.926153895501066 6.547399941979068 a39.148364435794576,39.148364435794576 0 0,0 -0.23707003500396434,-0.6288564334625218 l 17.036054614319465 -6.255875228322401" fill="#ffc312" stroke="none" /><path d="M 80.28708602549918 107.23885506374661 l -15.27370413697608 5.6087157219442245 a37.270947425195146,37.270947425195146 0 0,0 -0.2153902781820388,-0.6024849425437263 l 15.367734585202063 -5.345695823019577" fill="#ffa90f" stroke="none" /><path d="M 80.05021161711548 106.5578916946017 l -28.338266167765962 9.315350958832285 a50.83007027952443,50.83007027952443 0 0,0 -0.26536996200751295,-0.831267626363407 l 28.49400084555073 -8.827514298777487" fill="#a6ff21" stroke="none" /><path d="M 79.73907114497094 105.5222062557868 l -19.579760166974342 5.336550700834879 a41.29398387647966,41.29398387647966 0 0,0 -0.1805343856828856,-0.6855184681645694 l 19.66848403346196 -4.999651728297507" fill="#ffe015" stroke="none" /><path d="M 79.48165901384964 104.47187691870673 l -46.58682678358685 10.153382066802143 a68.68043201522386,68.68043201522386 0 0,0 -0.24117391801781207,-1.1541045036563522 l 46.754258412429024 -9.352161111860381" fill="#39ff87" stroke="none" /><path d="M 79.407916724674 104.11899336999214 l -25.627177892312663 5.126153309438473 a47.13483679834458,47.13483679834458 0 0,0 -0.1518947223247336,-0.7947773718031977 l 25.711398906919555 -4.68547337260196" fill="#d3ff1c" stroke="none" /><path d="M 79.34024301695615 103.76489593502545 l -14.717357185032627 2.681992740075466 a35.959735544776485,35.959735544776485 0 0,0 -0.1054565179264785,-0.6082451714208388 l 14.761228520451342 -2.4289545357340345" fill="#ff970d" stroke="none" /><path d="M 79.22317932658666 103.0534771498775 l -29.51304861299981 4.337401808465128 a50.83007027952443,50.83007027952443 0 0,0 -0.11946393772278338,-0.8643815424680721 l 29.583157067277806 -3.8301319577969695" fill="#a6ff21" stroke="none" /><path d="M 79.06263194458094 101.62068470465958 l -42.69526957455691 3.3048838888272942 a63.822988003672926,63.822988003672926 0 0,0 -0.07517751951525595,-1.0930646345542585 l 42.74571105523724 -2.5714758301186924" fill="#32ff4c" stroke="none" /><path d="M 79.01933749520258 100.90099992219065 l -31.886699788694898 1.3693520889514967 a52.91608918019047,52.91608918019047 0 0,0 -0.031183484119407377,-0.9078731159709039 l 31.905507959811153 -0.8217727084164729" fill="#8eff24" stroke="none" /><line stroke="#e1ed5e" stroke-width="0.3" x1="15.003131293944662" x2="10.003315487706104" y1="100.72959589197737" y2="100.7725132973878" /><path d="M 14.003168132696942 100.73817937305945 a86.0,86.0 0 0,1 10.791469493833604,-42.45332614584628" fill="none" id="id46" stroke="none" /><text fill="#e1ed5e" style="font-size:6.75px; font-family:Arial;" text-anchor="middle"><textPath startOffset="22.145653131862435" xlink:href="#id46">October</textPath></text><path d="M 79.01933749520258 99.09900007780938 l -38.49626781212186 -1.6531953790982572 a59.53174912230278,59.53174912230278 0 0,0 0.0526102209800073,-1.0206242320785794 l 38.46221600168528 2.3137914045535486" fill="#45ff2d" stroke="none" /><path d="M 79.13060592940154 97.66154086499901 l -31.747207422476077 -3.557340810026285 a52.945889450199985,52.945889450199985 0 0,0 0.10896242300780382,-0.9023651721494906 l 31.681462913208605 4.101799659099212" fill="#8eff24" stroke="none" /><path d="M 80.28708602549916 92.7611449362534 l -21.93147260694001 -8.053540523817338 a44.36341168745969,44.36341168745969 0 0,0 0.26865070133109087,-0.7126279029040927 l 21.78999122179448 8.428836706915575" fill="#f6ff19" stroke="none" /><path d="M 81.1358732173502 90.77261029715801 l -16.095715958284423 -7.873221241809347 a38.918138433784065,38.918138433784065 0 0,0 0.2987061395425994,-0.5976123743954181 l 15.958189905530077 8.148365472368535" fill="#ffc011" stroke="none" /><path d="M 81.29705330413844 90.45014215332179 l -19.150032902499856 -9.778143249403076 a42.50199631598596,42.50199631598596 0 0,0 0.33736856373008517,-0.6469487046649612 l 18.97935626979483 10.105438197172523" fill="#fff016" stroke="none" /><path d="M 81.46374523516351 90.13048839642627 l -22.431167764892486 -11.943333394256365 a46.41260513727609,46.41260513727609 0 0,0 0.3804831338499308,-0.7000461115753923 l 22.222839281427202 12.326634339306377" fill="#dcff1b" stroke="none" /><line stroke="#e1ed5e" stroke-width="0.3" x1="26.387840678322718" x2="22.05771365940052" y1="57.49999999999999" y2="54.99999999999999" /><path d="M 25.521815274538284 56.99999999999999 a86.0,86.0 0 0,1 29.574782752854787,-30.34633250058573" fill="none" id="id47" stroke="none" /><text fill="#e1ed5e" style="font-size:6.75px; font-family:Arial;" text-anchor="middle"><textPath startOffset="21.40746469413373" xlink:href="#id47">November</textPath></text><path d="M 82.37810715431573 88.57770195909679 l -20.839158971042337 -13.507691073453726 a45.8340142698726,45.8340142698726 0 0,0 0.43362373817058336,-0.6565616070891566 l 20.604210793951022 13.863432558881943" fill="#e4ff1b" stroke="none" /><path d="M 82.576782715395 88.27688183743585 l -34.845857500931984 -23.445848047837117 a62.99930446635427,62.99930446635427 0 0,0 0.611424039225708,-0.8920859458590944 l 34.43824372489097 24.040568728766246" fill="#31ff41" stroke="none" /><path d="M 82.98947788004972 87.6856937992154 l -16.310085653005373 -11.807244214836537 a41.13529016322244,41.13529016322244 0 0,0 0.41898835665461365,-0.5684381748457972 l 16.10499527676694 12.085488698951197" fill="#ffdd14" stroke="none" /><path d="M 83.2033758604659 87.39550010848427 l -15.010273057733317 -11.263988737028974 a39.76661236173514,39.76661236173514 0 0,0 0.4144211658420723,-0.5424906091854117 l 14.814699914536938 11.52000025945527" fill="#ffcb12" stroke="none" /><path d="M 83.64595745247003 86.82634096563983 l -23.35962168775104 -18.816857690794947 a50.99576734725214,50.99576734725214 0 0,0 0.5550116586943473,-0.6770239799737332 l 23.033163209818063 19.21508395246717" fill="#a5ff21" stroke="none" /><path d="M 84.10781606972428 86.27271002978789 l -11.338549149811344 -9.793968702089018 a35.982807472572915,35.982807472572915 0 0,0 0.40778619362763974,-0.46398583206916894 l 11.168751892225112 9.987166811969486" fill="#ff970d" stroke="none" /><path d="M 85.86807049272753 84.46653392183569 l -24.099341108707893 -26.489397461654555 a56.811540315314126,56.811540315314126 0 0,0 0.7270117982265586,-0.6500984329513984 l 23.641064283657943 26.899191424489352" fill="#62ff29" stroke="none" /><path d="M 86.96720088162412 83.53348406188908 l -39.09839735512763 -49.399547814332756 a84.0,84.0 0 0,0 1.1383602214590214,-0.8851957935167807 l 38.244627189033366 50.06344465947034" fill="#4dd2ff" stroke="none" /><path d="M 88.12776184653039 82.6780497279521 l -16.89850091296631 -24.655417849836002 a50.89061662889434,50.89061662889434 0 0,0 0.7248367778445418,-0.48770253257141283 l 16.472767847024777 24.941870056464523" fill="#a6ff21" stroke="none" /><path d="M 89.03521579738668 82.08984904055464 l -19.6610321847164 -32.11481848980285 a58.65524868064792,58.65524868064792 0 0,0 0.8632579058650498,-0.5183615690577146 l 19.10684152229392 32.447594059396486" fill="#4eff2b" stroke="none" /><line stroke="#e1ed5e" stroke-width="0.3" x1="56.869717070023135" x2="54.33264160355391" y1="26.7553504044142" y2="22.446841604673864" /><path d="M 56.362301976729285 25.89364864446614 a86.0,86.0 0 0,1 42.16139366436587,-11.88097634709845" fill="none" id="id48" stroke="none" /><text fill="#e1ed5e" style="font-size:6.75px; font-family:Arial;" text-anchor="middle"><textPath startOffset="22.145653131862474" xlink:href="#id48">December</textPath></text><path d="M 89.34428304082924 81.90426304109057 l -31.95213018432496 -54.261702455859066 a83.97039762240851,83.97039762240851 0 0,0 1.248390029260625,-0.7207583194472627 l 31.015947687203937 54.8022076725825" fill="#4dd2ff" stroke="none" /><path d="M 91.26138138417902 80.90454125486306 l -26.18210046531613 -57.21261463354351 a83.91888156970262,83.91888156970262 0 0,0 1.3150751986636078,-0.5882164092810054 l 25.196111863796904 57.65363479373436" fill="#4dd3ff" stroke="none" /><path d="M 91.5904679813234 80.7573450057729 l -11.946501629877783 -27.33593364543565 a50.832401335801535,50.832401335801535 0 0,0 0.8025829203719766,-0.34257492417633795 l 11.475483634335376 27.53698321927139" fill="#a6ff21" stroke="none" /><path d="M 92.25597844496254 80.48000691201159 l -11.002391952243133 -27.73321501402847 a50.835948848413025,50.835948848413025 0 0,0 0.8139264792998372,-0.31484424732540217 l 10.524693210449767 27.917999149491912" fill="#a6ff21" stroke="none" /><path d="M 93.27111125876988 80.10723608172694 l -11.749505716034623 -34.735325899109405 a57.6687025934716,57.6687025934716 0 0,0 0.9404866375056008,-0.30915663818635614 l 11.15149634088126 34.93190345869779" fill="#59ff2a" stroke="none" /><path d="M 93.61358852112211 79.99465700312896 l -9.619494886492172 -30.132930722894052 a52.631127008407105,52.631127008407105 0 0,0 0.8630486470413647,-0.2673746769923272 l 9.10080560657919 30.293621987693022" fill="#91ff23" stroke="none" /><path d="M 93.95794788825049 79.88797359093562 l -18.109137206032887 -60.27942808120612 a83.94084762810417,83.94084762810417 0 0,0 1.383584950412759,-0.4027414144820382 l 17.071692243238505 60.58141318999068" fill="#4dd3ff" stroke="none" /><path d="M 94.6519064749342 79.69241777938228 l -7.596872978889893 -28.846564091546487 a50.83013139335941,50.83013139335941 0 0,0 0.8457037549284911,-0.21497458740401598 l 7.1005639307360235 28.972723910785763" fill="#a6ff21" stroke="none" /><path d="M 95.35216902796891 79.52079915486377 l -5.638114000278919 -24.84257058707729 a46.47433302078896,46.47433302078896 0 0,0 0.7795241310705244,-0.16989365620067384 l 5.210827452589276 24.935695701411678" fill="#dcff1b" stroke="none" /><path d="M 96.41257539226777 79.30868818359171 l -10.747917248245741 -61.9911305400192 a83.91595974635402,83.91595974635402 0 0,0 1.4214664159367085,-0.2339017578109771 l 9.68217332925596 62.16649829632584" fill="#4dd3ff" stroke="none" /><path d="M 97.12497278360702 79.19773525538626 l -4.090427538985482 -29.596296027899573 a50.877622663504454,50.877622663504454 0 0,0 0.866184689127353,-0.1121449496291545 l 3.581765027967335 29.662152573729124" fill="#a6ff21" stroke="none" /><path d="M 97.48249496171623 79.15144685158666 l -2.749379822945809 -22.76880899628201 a43.934204859118054,43.934204859118054 0 0,0 0.7495261091779863,-0.08398596389524952 l 2.3581178121670234 22.812650720684232" fill="#fcff18" stroke="none" /><path d="M 98.5590905019552 79.04949213459386 l -4.317899398724408 -62.78130960879746 a83.92962014356347,83.92962014356347 0 0,0 1.438216563430313,-0.08651953704918404 l 3.2395384831616116 62.846181123671336" fill="#4dd3ff" stroke="none" /><path d="M 99.27912038922189 79.0123766808444 l -1.0602495944131929 -30.86801010755845 a51.886213384013004,51.886213384013004 0 0,0 0.8904333565182219,-0.02293440467934674 l 0.5302029238242272 30.881662229587842" fill="#9aff23" stroke="none" /></svg>