<?xml version="1.0" encoding="utf-8" ?>
<svg baseProfile="full" height="200mm" version="1.1" viewBox="0,0,200,200" width="200mm" xmlns="http://www.w3.org/2000/svg" xmlns:ev="http://www.w3.org/2001/xml-events" xmlns:xlink="http://www.w3.org/1999/xlink"><defs /><rect fill="#1a1a1a" height="200" width="200" x="0" y="0" /><text alignment-baseline="middle" fill="#e1ed5e" style="dominant-baseline: central; font-size:9.0px; font-family:Arial;" text-anchor="middle" x="100.0" y="100.0">2025</text><line stroke="#e1ed5e" stroke-width="0.3" x1="100.0" x2="100.0" y1="15.0" y2="10.0" /><path d="M 100.0 14.0 a86.0,86.0 0 0,1 42.46469731375804,11.215312516191453" fill="none" id="id49" stroke="none" /><text fill="#e1ed5e" style="font-size:6.75px; font-family:Arial;" text-anchor="middle"><textPath startOffset="22.20632615414155" xlink:href="#id49">January</textPath></text><path d="M 100.0 79.0 l 0.0 -18.041467175653317 a39.04146717565332,39.04146717565332 0 0,0 0.6720346793408498,0.005784414654006982 l -0.3105542000683214 18.03879413760787" fill="#ffd213" stroke="none" /><path d="M 100.72285384407766 79.0124445844662 l 1.047113418478437 -30.402205199180177 a51.42023220628363,51.42023220628363 0 0,0 0.8843280124746992,0.03808102445054909 l -1.5702822633424676 30.379676448205434" fill="#95ff23" stroke="none" /><path d="M 101.08401301168833 79.027996857942 l 0.18092682857120368 -3.5003251587987596 a24.504997964994615,24.504997964994615 0 0,0 0.4210634885180065,0.025399699501915927 l -0.24115236592882208 3.4966921899165397" fill="#ff0500" stroke="none" /><path d="M 101.80526077348638 79.07773832637324 l 1.4523207437159893 -16.831825673240598 a37.894365659502846,37.894365659502846 0 0,0 0.6493919059861619,0.06166758630267807 l -1.7418377767923954 16.804332542422742" fill="#ffc312" stroke="none" /><path d="M 102.16513564639614 79.11191278185805 l 2.885152958752585 -27.83443464173523 a48.983564094311305,48.983564094311305 0 0,0 0.8379298668305766,0.09415118382278992 l -3.363849529092887 27.780647504441838" fill="#b1ff20" stroke="none" /><path d="M 103.59715602781102 79.31037775812273 l 6.755747445154461 -38.856769492656575 a60.43968380892724,60.43968380892724 0 0,0 1.0234593543548827,0.18703065522079518 l -7.423601920612245 38.73472335608504" fill="#35ff2f" stroke="none" /><path d="M 104.307194497241 79.44645832069477 l 6.203819484225611 -29.604064181822864 a51.24711543725029,51.24711543725029 0 0,0 0.861823413467095,0.18836121777516482 l -6.712485621846234 29.492889465951826" fill="#97ff23" stroke="none" /><path d="M 105.36241919743992 79.69619591428918 l 6.778426038211327 -25.665250929100942 a47.54528517099069,47.54528517099069 0 0,0 0.7894829188850025,0.21579550462130703 l -7.2192068463200405 25.54476888365334" fill="#c2ff1e" stroke="none" /><path d="M 106.0581310904928 79.89281104454417 l 17.05228651883523 -56.59724790288444 a80.11031166980095,80.11031166980095 0 0,0 1.316916732624692,0.40917243924867086 l -18.02398862417064 56.29533532875325" fill="#48f7ff" stroke="none" /><path d="M 106.74666289553966 80.11325718540242 l 10.014179641560112 -29.5182104270463 a52.17063587270593,52.17063587270593 0 0,0 0.8479417563246034,0.2958302290088214 l -10.52080340194799 29.341459344865267" fill="#8dff24" stroke="none" /><path d="M 109.73455568895987 81.39251694778311 l 27.341057542358296 -52.26209403949473 a79.98186077878128,79.98186077878128 0 0,0 1.214410118914162,0.6486958278381635 l -28.23661270780077 51.783719485154805" fill="#48f9ff" stroke="none" /><line stroke="#e1ed5e" stroke-width="0.3" x1="143.23703022742887" x2="145.7803849466894" y1="26.81831364943548" y2="22.513508569990506" /><path d="M 143.74570117128098 25.957352633546492 a86.0,86.0 0 0,1 28.547481713284135,27.462654790039103" fill="none" id="id50" stroke="none" /><text fill="#e1ed5e" style="font-size:6.75px; font-family:Arial;" text-anchor="middle"><textPath startOffset="19.985693538727396" xlink:href="#id50">February</textPath></text><path d="M 110.99172775467656 82.1063720568725 l 6.391757469017623 -10.40525498865698 a33.21162949494102,33.21162949494102 0 0,0 0.4845431997980178,0.30342090726144016 l -6.569919821187904 10.293689740072596" fill="#ff830c" stroke="none" /><path d="M 111.60114157652 82.49532879139004 l 17.999070335754823 -27.158345255066173 a53.581317498603774,53.581317498603774 0 0,0 0.7644148185759192,0.5161362977766839 l -18.46388984873728 26.844497044990817" fill="#7dff26" stroke="none" /><path d="M 113.06298171725822 83.55741782278167 l 27.37380518440666 -34.45584254727425 a65.00602567735928,65.00602567735928 0 0,0 0.8701415662254817,0.7035939655978662 l -27.962850149196633 33.979542484412256" fill="#35ff61" stroke="none" /><path d="M 113.34407831869373 83.78471172551755 l 17.285363986653753 -21.00460993100538 a48.202526472825944,48.202526472825944 0 0,0 0.6361412814986824,0.5327500288112706 l -17.64436280511155 20.70395874480029" fill="#baff1f" stroke="none" /><path d="M 114.16331599549186 84.49514656593476 l 21.071494771670306 -23.067369122838965 a52.24278172893434,52.24278172893434 0 0,0 0.6587369871642113,0.6122242378187764 l -21.465439642629363 22.701240298945546" fill="#8cff24" stroke="none" /><path d="M 115.19652480421416 85.50635884689758 l 23.40277066126534 -22.32032417429225 a53.34016923068395,53.34016923068395 0 0,0 0.6279729945452717,0.6698778064300722 l -23.783510977781074 21.914176950984125" fill="#80ff26" stroke="none" /><path d="M 115.4437574822437 85.77008943001954 l 19.829046335756342 -18.27052492699582 a47.9629961186354,47.9629961186354 0 0,0 0.5542155249188229,0.6119786249614187 l -20.1406055012912 17.926493514764854" fill="#bdff1f" stroke="none" /><path d="M 116.60985879189232 87.15038557335679 l 17.372359624322172 -13.439495521929862 a42.96403694225522,42.96403694225522 0 0,0 0.44748898020815364,0.5888430438852733 l -17.601124544754438 13.138467702163554" fill="#faff18" stroke="none" /><path d="M 117.2510076193507 88.02491185347247 l 34.91716353333999 -24.238358730387077 a63.5053684039668,63.5053684039668 0 0,0 0.6156256812257846,0.903354722979716 l -35.3292136802345 23.633725984136955" fill="#33ff4f" stroke="none" /><line stroke="#e1ed5e" stroke-width="0.3" x1="172.23445277983987" x2="176.4835382374775" y1="55.19839476539836" y2="52.563006222186495" /><path d="M 173.08426987136738 54.67131705675599 a86.0,86.0 0 0,1 12.851231095245387,41.99856678651699" fill="none" id="id51" stroke="none" /><text fill="#e1ed5e" style="font-size:6.75px; font-family:Arial;" text-anchor="middle"><textPath startOffset="22.20632615414155" xlink:href="#id51">March</textPath></text><path d="M 118.73160827565052 90.50648371742162 l 23.105183269263822 -11.710122822921155 a46.90321351558852,46.90321351558852 0 0,0 0.358787219599413,0.7232931412195144 l -23.303330501816642 11.31067009320269" fill="#caff1d" stroke="none" /><path d="M 119.196687751892 91.48605970444005 l 53.94198021149952 -23.923856286078248 a80.00922070943432,80.00922070943432 0 0,0 0.5475270625806234,1.2637679500132695 l -54.34579798392283 22.991789191478375" fill="#48f8ff" stroke="none" /><path d="M 120.08093135843002 93.85539295169968 l 56.40347839532799 -17.259020745125603 a79.98496564526343,79.98496564526343 0 0,0 0.3915229899074365,1.3200208854636517 l -56.69220728234713 16.28557047291542" fill="#48f9ff" stroke="none" /><path d="M 120.37134235888165 94.90015583598534 l 16.081056130554288 -4.025796573137633 a37.577315956520955,37.577315956520955 0 0,0 0.15168208796898613,0.6288201800820054 l -16.14797101878409 3.7483911613962215" fill="#ffbe11" stroke="none" /><path d="M 120.45610955862082 95.25157060432595 l 21.62509917947087 -5.019784252421137 a43.20007091121123,43.20007091121123 0 0,0 0.16190895536296784,0.7258060997364241 l -21.708302521835876 4.646799983134749" fill="#f7ff18" stroke="none" /><path d="M 120.6074358757038 95.95851677861258 l 41.1764232045029 -8.075426001638016 a62.960819022324344,62.960819022324344 0 0,0 0.19941872853867926,1.0653028218830445 l -41.30932765695144 7.365445102292409" fill="#32ff48" stroke="none" /><path d="M 120.91429891909075 98.10471618934814 l 14.009098014399536 -1.2695245856073345 a35.06650346925328,35.06650346925328 0 0,0 0.04930269597977053,0.6016177701027358 l -14.0288751941988 1.02819289829683" fill="#ff9d0e" stroke="none" /><path d="M 120.96714384426684 98.82574320788733 l 58.58671524239648 -3.281126357120217 a79.67852241719316,79.67852241719316 0 0,0 0.06490533427831618,1.3700490231208946 l -58.63451418490829 2.2721662273763226" fill="#47fcff" stroke="none" /><line stroke="#e1ed5e" stroke-width="0.3" x1="184.98032266829074" x2="189.97916517819016" y1="98.17113171792111" y2="98.06355123074" /><path d="M 185.9800911702706 98.14961562048488 a86.0,86.0 0 0,1 -9.607161424134198,41.387399972396054" fill="none" id="id52" stroke="none" /><text fill="#e1ed5e" style="font-size:6.75px; font-family:Arial;" text-anchor="middle"><textPath startOffset="21.466115282336823" xlink:href="#id52">April</textPath></text><path d="M 120.9764740272857 100.99374915477107 l 27.982282746959005 1.3256455680866226 a49.01366602040774,49.01366602040774 0 0,0 -0.04717833555487382,0.8424008739454547 l -27.9553180605166 -1.8071181583675004" fill="#b1ff20" stroke="none" /><path d="M 120.95626037817324 101.35467743843564 l 28.542549177046208 1.8450785926412883 a49.602122797742204,49.602122797742204 0 0,0 -0.06241232294621237,0.8515665597796211 l -28.50656029543566 -2.33611828891768" fill="#aaff21" stroke="none" /><path d="M 120.92983693683757 101.71520430193887 l 27.86897512841353 2.2838680576029775 a48.96240025485422,48.96240025485422 0 0,0 -0.0760675274075261,0.8393988263372253 l -27.82553300472893 -2.7632482724887732" fill="#b1ff20" stroke="none" /><path d="M 120.8583938346157 102.4346265915055 l 3.155817240364159 0.36835226299022805 a24.17724186114776,24.17724186114776 0 0,0 -0.05180663782502733,0.4129498764711087 l -3.149009093292284 -0.42261989374873166" fill="#ff0000" stroke="none" /><path d="M 120.81339534386255 102.79330883721812 l 27.746061091151674 3.7237229372458827 a48.99482128157442,48.99482128157442 0 0,0 -0.11937459648303674,0.8349056497677148 l -27.677852443652036 -4.200774058994007" fill="#b1ff20" stroke="none" /><path d="M 120.70491114924044 103.5080841355445 l 13.874679060073008 2.3508210755204897 a35.072422632551216,35.072422632551216 0 0,0 -0.10597476151518721,0.5943627419659464 l -13.832157856218632 -2.5893025682196544" fill="#ff9d0e" stroke="none" /><path d="M 120.64145759157962 103.86396538481128 l 13.79638168658634 2.5826054694102805 a35.036025030349684,35.036025030349684 0 0,0 -0.11606945760132081,0.5918356636962113 l -13.749882296009355 -2.8197048601744368" fill="#ff9c0e" stroke="none" /><path d="M 120.5718875245553 104.21870165774334 l 33.972422731287764 6.966765491157297 a55.67940783292151,55.67940783292151 0 0,0 -0.20062075794913237,0.9372333910489936 l -33.847467934614194 -7.550512701622459" fill="#66ff29" stroke="none" /><path d="M 120.41448212921028 104.9243191809786 l 27.187415516807473 6.558065537165272 a48.96719124390754,48.96719124390754 0 0,0 -0.20470311247452605,0.8176871786734273 l -27.070501090037887 -7.025080555236096" fill="#b1ff20" stroke="none" /><path d="M 120.02730092923936 106.31721596034902 l 56.29801117912925 17.75809411429313 a80.03232986506168,80.03232986506168 0 0,0 -0.42572530548339194,1.3102477640451504 l -55.983993622629605 -18.724540778316076" fill="#48f8ff" stroke="none" /><path d="M 119.26925614724726 108.34839909993367 l 15.313201165219125 6.634439536633665 a37.6886164163395,37.6886164163395 0 0,0 -0.2630287019027552,0.5930602852413518 l -15.196731378585095 -6.897048158367705" fill="#ffc011" stroke="none" /><path d="M 118.97047184881838 109.00673069616215 l 16.446144396340326 7.808239813352877 a39.20561107153795,39.20561107153795 0 0,0 -0.29468943000344605,0.6071475099330578 l -16.309301709722163 -8.09017627925121" fill="#ffd413" stroke="none" /><path d="M 118.81262510543309 109.33194174019688 l 13.448505124649136 6.6710874007540975 a36.012184957434215,36.012184957434215 0 0,0 -0.28024567474508627,0.5529513031861071 l -13.331680780117782 -6.901592915642898" fill="#ffaa0f" stroke="none" /><line stroke="#e1ed5e" stroke-width="0.3" x1="174.80103733775053" x2="179.2010983576182" y1="140.37084112569926" y2="142.7455964860345" /><path d="M 175.68104954172406 140.8457921977663 a86.0,86.0 0 0,1 -30.038265399797805,32.042727171017184" fill="none" id="id53" stroke="none" /><text fill="#e1ed5e" style="font-size:6.75px; font-family:Arial;" text-anchor="middle"><textPath startOffset="22.206326154141568" xlink:href="#id53">May</textPath></text><path d="M 118.48025628344425 109.97397251340804 l 19.897508631938255 10.738877271850484 a43.6104916978363,43.6104916978363 0 0,0 -0.3622237403581781,0.6575413037477493 l -19.70970848212857 -11.07978909399604" fill="#f2ff19" stroke="none" /><path d="M 118.30583269289576 110.29060199501025 l 20.96454030971205 11.7851913078677 a45.050003837018025,45.050003837018025 0 0,0 -0.38581682206739687,0.6727041498712194 l -20.758571491492273 -12.144315303597235" fill="#e0ff1b" stroke="none" /><path d="M 118.12598468904814 110.60418214915192 l 54.37795406714442 31.812546447455787 a84.0,84.0 0 0,0 -0.7408764972070911,1.2417516244555835 l -53.8222966942391 -32.74386016579747" fill="#4dd2ff" stroke="none" /><path d="M 117.75023020441432 111.22182372390056 l 23.621023542587434 14.933381670007877 a48.94563724987493,48.94563724987493 0 0,0 -0.4563484634493617,0.7082629494436633 l -23.360470215761023 -15.337766219372993" fill="#b2ff20" stroke="none" /><line stroke="#e1ed5e" stroke-width="0.3" x1="143.8653032363475" x2="146.44561519142675" y1="172.8068346515853" y2="177.08958963109032" /><path d="M 144.38136562736335 173.6633856474863 a86.0,86.0 0 0,1 -40.68145358897372,12.25698825130547" fill="none" id="id54" stroke="none" /><text fill="#e1ed5e" style="font-size:6.75px; font-family:Arial;" text-anchor="middle"><textPath startOffset="21.466115282336833" xlink:href="#id54">June</textPath></text><line stroke="#e1ed5e" stroke-width="0.3" x1="102.19456741930631" x2="102.32365962044197" y1="184.97166512339345" y2="189.96999836594603" /><path d="M 102.22038585953345 185.97133177190398 a86.0,86.0 0 0,1 -42.740103519485714,-10.115201625700543" fill="none" id="id55" stroke="none" /><text fill="#e1ed5e" style="font-size:6.75px; font-family:Arial;" text-anchor="middle"><textPath startOffset="22.20632615414155" xlink:href="#id55">July</textPath></text><line stroke="#e1ed5e" stroke-width="0.3" x1="58.666819895761336" x2="56.23545636021788" y1="174.27360380694188" y2="178.64263932499728" /><path d="M 58.180547188652646 175.14741091055294 a86.0,86.0 0 0,1 -31.652253787137756,-30.449443065178592" fill="none" id="id56" stroke="none" /><text fill="#e1ed5e" style="font-size:6.75px; font-family:Arial;" text-anchor="middle"><textPath startOffset="22.20632615414155" xlink:href="#id56">August</textPath></text><line stroke="#e1ed5e" stroke-width="0.3" x1="26.63291911575756" x2="22.317208475507996" y1="142.92168965132927" y2="145.44649492493687" /><path d="M 25.769776987707644 143.4266507060508 a86.0,86.0 0 0,1 -11.730757126820373,-40.83630448921669" fill="none" id="id57" stroke="none" /><text fill="#e1ed5e" style="font-size:6.75px; font-family:Arial;" text-anchor="middle"><textPath startOffset="21.46611528233685" xlink:href="#id57">September</textPath></text><line stroke="#e1ed5e" stroke-width="0.3" x1="15.007084014347285" x2="10.007500721073583" y1="101.09737516637583" y2="101.16192664675087" /><path d="M 14.007167355692545 101.11028546245083 a86.0,86.0 0 0,1 10.666146001902534,-42.60595125391555" fill="none" id="id58" stroke="none" /><text fill="#e1ed5e" style="font-size:6.75px; font-family:Arial;" text-anchor="middle"><textPath startOffset="22.20632615414155" xlink:href="#id58">October</textPath></text><line stroke="#e1ed5e" stroke-width="0.3" x1="26.266209847984243" x2="21.928928074336255" y1="57.711370442889674" y2="55.22380399835377" /><path d="M 25.398753493254645 57.213857153982495 a86.0,86.0 0 0,1 29.58750427330803,-30.492523968695096" fill="none" id="id59" stroke="none" /><text fill="#e1ed5e" style="font-size:6.75px; font-family:Arial;" text-anchor="middle"><textPath startOffset="21.46611528233685" xlink:href="#id59">November</textPath></text><line stroke="#e1ed5e" stroke-width="0.3" x1="56.762969772571076" x2="54.21961505331055" y1="26.818313649435495" y2="22.513508569990535" /><path d="M 56.25429882871897 25.957352633546506 a86.0,86.0 0 0,1 42.265352541879196,-11.944610805530505" fill="none" id="id60" stroke="none" /><text fill="#e1ed5e" style="font-size:6.75px; font-family:Arial;" text-anchor="middle"><textPath startOffset="22.20632615414155" xlink:href="#id60">December</textPath></text></svg>