<?xml version="1.0" encoding="utf-8" ?>
<svg baseProfile="full" height="200mm" version="1.1" viewBox="0,0,200,200" width="200mm" xmlns="http://www.w3.org/2000/svg" xmlns:ev="http://www.w3.org/2001/xml-events" xmlns:xlink="http://www.w3.org/1999/xlink"><defs /><rect fill="#1a1a1a" height="200" width="200" x="0" y="0" /><text alignment-baseline="middle" fill="#e1ed5e" style="dominant-baseline: central; font-size:9.0px; font-family:Arial;" text-anchor="middle" x="100.0" y="100.0">2022</text><line stroke="#e1ed5e" stroke-width="0.3" x1="100.0" x2="100.0" y1="15.0" y2="10.0" /><path d="M 100.0 14.0 a86.0,86.0 0 0,1 42.46469731375804,11.215312516191453" fill="none" id="id13" stroke="none" /><text fill="#e1ed5e" style="font-size:6.75px; font-family:Arial;" text-anchor="middle"><textPath startOffset="22.20632615414155" xlink:href="#id13">January</textPath></text><line stroke="#e1ed5e" stroke-width="0.3" x1="143.23703022742887" x2="145.7803849466894" y1="26.81831364943548" y2="22.513508569990506" /><path d="M 143.74570117128098 25.957352633546492 a86.0,86.0 0 0,1 28.547481713284135,27.462654790039103" fill="none" id="id14" stroke="none" /><text fill="#e1ed5e" style="font-size:6.75px; font-family:Arial;" text-anchor="middle"><textPath startOffset="19.985693538727396" xlink:href="#id14">February</textPath></text><line stroke="#e1ed5e" stroke-width="0.3" x1="172.23445277983987" x2="176.4835382374775" y1="55.19839476539836" y2="52.563006222186495" /><path d="M 173.08426987136738 54.67131705675599 a86.0,86.0 0 0,1 12.851231095245387,41.99856678651699" fill="none" id="id15" stroke="none" /><text fill="#e1ed5e" style="font-size:6.75px; font-family:Arial;" text-anchor="middle"><textPath startOffset="22.20632615414155" xlink:href="#id15">March</textPath></text><line stroke="#e1ed5e" stroke-width="0.3" x1="184.98032266829074" x2="189.97916517819016" y1="98.17113171792111" y2="98.06355123074" /><path d="M 185.9800911702706 98.14961562048488 a86.0,86.0 0 0,1 -9.607161424134198,41.387399972396054" fill="none" id="id16" stroke="none" /><text fill="#e1ed5e" style="font-size:6.75px; font-family:Arial;" text-anchor="middle"><textPath startOffset="21.466115282336823" xlink:href="#id16">April</textPath></text><line stroke="#e1ed5e" stroke-width="0.3" x1="174.80103733775053" x2="179.2010983576182" y1="140.37084112569926" y2="142.7455964860345" /><path d="M 175.68104954172406 140.8457921977663 a86.0,86.0 0 0,1 -30.038265399797805,32.042727171017184" fill="none" id="id17" stroke="none" /><text fill="#e1ed5e" style="font-size:6.75px; font-family:Arial;" text-anchor="middle"><textPath startOffset="22.206326154141568" xlink:href="#id17">May</textPath></text><line stroke="#e1ed5e" stroke-width="0.3" x1="143.8653032363475" x2="146.44561519142675" y1="172.8068346515853" y2="177.08958963109032" /><path d="M 144.38136562736335 173.6633856474863 a86.0,86.0 0 0,1 -40.68145358897372,12.25698825130547" fill="none" id="id18" stroke="none" /><text fill="#e1ed5e" style="font-size:6.75px; font-family:Arial;" text-anchor="middle"><textPath startOffset="21.466115282336833" xlink:href="#id18">June</textPath></text><line stroke="#e1ed5e" stroke-width="0.3" x1="102.19456741930631" x2="102.32365962044197" y1="184.97166512339345" y2="189.96999836594603" /><path d="M 102.22038585953345 185.97133177190398 a86.0,86.0 0 0,1 -42.740103519485714,-10.115201625700543" fill="none" id="id19" stroke="none" /><text fill="#e1ed5e" style="font-size:6.75px; font-family:Arial;" text-anchor="middle"><textPath startOffset="22.20632615414155" xlink:href="#id19">July</textPath></text><line stroke="#e1ed5e" stroke-width="0.3" x1="58.666819895761336" x2="56.23545636021788" y1="174.27360380694188" y2="178.64263932499728" /><path d="M 58.180547188652646 175.14741091055294 a86.0,86.0 0 0,1 -31.652253787137756,-30.449443065178592" fill="none" id="id20" stroke="none" /><text fill="#e1ed5e" style="font-size:6.75px; font-family:Arial;" text-anchor="middle"><textPath startOffset="22.20632615414155" xlink:href="#id20">August</textPath></text><line stroke="#e1ed5e" stroke-width="0.3" x1="26.63291911575756" x2="22.317208475507996" y1="142.92168965132927" y2="145.44649492493687" /><path d="M 25.769776987707644 143.4266507060508 a86.0,86.0 0 0,1 -11.730757126820373,-40.83630448921669" fill="none" id="id21" stroke="none" /><text fill="#e1ed5e" style="font-size:6.75px; font-family:Arial;" text-anchor="middle"><textPath startOffset="21.46611528233685" xlink:href="#id21">September</textPath></text><path d="M 79.67330655649465 105.27499134158121 l -35.49437008131641 9.211163408067561 a57.67009461127108,57.67009461127108 0 0,0 -0.24108484811442768,-0.9630141275948219 l 35.6476662437259 -8.598821441075348" fill="red" stroke="none" /><path d="M 79.50377843672027 104.57218783832718 l -24.003596376247387 5.354594313335037 a45.593582887700535,45.593582887700535 0 0,0 -0.1642801084378452,-0.7674619749574197 l 24.092210523409673 -4.940618518961453" fill="red" stroke="none" /><path d="M 79.35854240842038 103.8639653848113 l -39.88191127422851 7.465670675630875 a61.574660633484164,61.574660633484164 0 0,0 -0.1860538704262702,-1.0434889118772739 l 40.004511586993964 -6.778063013020387" fill="red" stroke="none" /><path d="M 79.29508885075956 103.50808413554451 l -60.44539466316717 10.241412221291396 a82.30686960098726,82.30686960098726 0 0,0 -0.22465168426393323,-1.3989062523583136 l 60.61272810179239 -9.19942673923987" fill="red" stroke="none" /><path d="M 79.18660465613746 102.79330883721812 l -32.95382915611968 4.422643239182459 a54.24928013163307,54.24928013163307 0 0,0 -0.11624455858897317,-0.9265835059955055 l 33.0250752239555 -3.8547419788995447" fill="red" stroke="none" /><line stroke="#e1ed5e" stroke-width="0.3" x1="15.007084014347285" x2="10.007500721073583" y1="101.09737516637583" y2="101.16192664675087" /><path d="M 14.007167355692545 101.11028546245083 a86.0,86.0 0 0,1 10.666146001902534,-42.60595125391555" fill="none" id="id22" stroke="none" /><text fill="#e1ed5e" style="font-size:6.75px; font-family:Arial;" text-anchor="middle"><textPath startOffset="22.20632615414155" xlink:href="#id22">October</textPath></text><path d="M 79.08570108090925 98.10471618934814 l -38.19806137423406 -3.4615631918116967 a59.35458658988071,59.35458658988071 0 0,0 0.10096744937778972,-1.016728436252513 l 38.13281679917404 4.1185671587686405" fill="red" stroke="none" /><path d="M 79.3925641242962 95.95851677861259 l -17.97110820916991 -3.5244526652987695 a39.31345125462772,39.31345125462772 0 0,0 0.135950976672505,-0.6629452442617668 l 17.90777793658241 3.833273565723939" fill="red" stroke="none" /><path d="M 79.46518482838121 95.60439243477599 l -36.4997681433833 -7.813007112025066 a58.32661456190868,58.32661456190868 0 0,0 0.2186015215805192,-0.9799477577946011 l 36.35987223480075 8.440133039369627" fill="red" stroke="none" /><path d="M 79.54389044137918 95.25157060432595 l -54.4009659796313 -12.627970400260274 a76.84738790621144,76.84738790621144 0 0,0 0.31019704190859393,-1.285967000887703 l 54.17553613746189 13.562522632807374" fill="red" stroke="none" /><path d="M 79.71946130924805 94.55025226153421 l -44.064913765755584 -11.84103971804866 a66.62813656931304,66.62813656931304 0 0,0 0.30716595582955963,-1.1050393733976536 l 43.854561039359666 12.597790394865257" fill="red" stroke="none" /><path d="M 79.91906864156998 93.8553929516997 l -46.001936131261544 -14.07623062607339 a69.10736322501029,69.10736322501029 0 0,0 0.35785937056946493,-1.1345119985967438 l 45.752821276923875 14.865992791096547" fill="red" stroke="none" /><path d="M 80.14247586403 93.16781622104843 l -53.56875495009923 -18.43087668546458 a77.65076100370217,77.65076100370217 0 0,0 0.4457409529414323,-1.2601696980876975 l 53.24356091634799 19.350244009978887" fill="red" stroke="none" /><path d="M 80.2630227832202 92.82701384747504 l -43.622697896239366 -15.853745206711888 a67.41423282599753,67.41423282599753 0 0,0 0.40575474756614494,-1.0872209949086875 l 43.343338560171595 16.602289338649918" fill="red" stroke="none" /><path d="M 80.38941819471856 92.48833698450439 l -57.371640394554326 -21.97570850111264 a82.43644590703414,82.43644590703414 0 0,0 0.5189823749399514,-1.3207535361084861 l 56.984864469732685 22.96001104211689" fill="red" stroke="none" /><path d="M 80.65960295795067 91.81776055985345 l -58.02119112614799 -24.546718320439627 a84.0,84.0 0 0,0 0.5748371606292864,-1.3268034216536029 l 57.59006325567602 25.54182088667983" fill="red" stroke="none" /><path d="M 80.95270993114464 91.15688171328213 l -41.63607545285784 -19.330452725470497 a66.90456602221309,66.90456602221309 0 0,0 0.49395260744369995,-1.0403901648967826 l 41.29716465157238 20.04428530600781" fill="red" stroke="none" /><path d="M 81.26839172434947 90.50648371742162 l -39.18920596049303 -19.861795069187014 a64.93500617030028,64.93500617030028 0 0,0 0.5138850230092237,-0.9926622981361818 l 38.84151150432369 20.53343008958353" fill="red" stroke="none" /><line stroke="#e1ed5e" stroke-width="0.3" x1="26.266209847984243" x2="21.928928074336255" y1="57.711370442889674" y2="55.22380399835377" /><path d="M 25.398753493254645 57.213857153982495 a86.0,86.0 0 0,1 29.58750427330803,-30.492523968695096" fill="none" id="id23" stroke="none" /><text fill="#e1ed5e" style="font-size:6.75px; font-family:Arial;" text-anchor="middle"><textPath startOffset="21.46611528233685" xlink:href="#id23">November</textPath></text><path d="M 81.78341655067845 89.55222093294921 l -42.12069747784302 -24.157534403904755 a69.55656108597285,69.55656108597285 0 0,0 0.6046132049218272,-1.0334799554613174 l 41.69862459845086 24.878993771719966" fill="red" stroke="none" /><path d="M 82.7489923806493 88.02491185347247 l -44.45806776439004 -30.86134398930273 a75.11970382558619,75.11970382558619 0 0,0 0.746501628212865,-1.0558736129637136 l 43.92025351637329 31.622044102598228" fill="red" stroke="none" /><path d="M 83.17141714833178 87.43820079747577 l -35.85851878718278 -26.766811957661666 a65.74701768819415,65.74701768819415 0 0,0 0.6847835536628166,-0.9010948871943744 l 35.39245929329586 27.380091620737062" fill="red" stroke="none" /><path d="M 83.6137871275137 86.86637796730984 l -33.999201040238944 -27.250509886009525 a64.57219251336898,64.57219251336898 0 0,0 0.7026115885351565,-0.8613187298147204 l 33.52509095962739 27.831712785432327" fill="red" stroke="none" /><path d="M 84.31358615837235 86.03803664274999 l -32.92791848367994 -29.30806211931174 a65.08185931715343,65.08185931715343 0 0,0 0.7520250973256755,-0.8304048953974351 l 32.41854974573822 29.87051980197873" fill="red" stroke="none" /><path d="M 84.80347519578584 85.50635884689758 l -34.39378012043863 -32.802967348568274 a68.52858905800082,68.52858905800082 0 0,0 0.8214807059001229,-0.846608077622735 l 33.82403515083539 33.39013962174113" fill="red" stroke="none" /><path d="M 85.83668400450813 84.49514656593479 l -31.589263400887265 -34.58137199485875 a67.83751542575072,67.83751542575072 0 0,0 0.8689307751578925,-0.7801346294261019 l 30.9893216381334 35.12000563305413" fill="red" stroke="none" /><path d="M 86.65592168130627 83.78471172551755 l -28.543483034638992 -34.685108608518604 a65.91978609625669,65.91978609625669 0 0,0 0.8823727542387071,-0.713484069015785 l 27.942206881835784 35.17129877479852" fill="red" stroke="none" /><path d="M 87.51073957382395 83.11751280151077 l -25.928958194533312 -35.049737922984434 a64.59810777457835,64.59810777457835 0 0,0 0.899619960636125,-0.6536121604446555 l 25.321792917543405 35.49086931824576" fill="red" stroke="none" /><path d="M 88.70189139769569 82.29822771554957 l -6.385685405004577 -10.00503295715133 a32.869189633895516,32.869189633895516 0 0,0 0.47954715147001986,-0.3002923822567875 l 6.212519101162314 10.113469680731049" fill="red" stroke="none" /><line stroke="#e1ed5e" stroke-width="0.3" x1="56.76296977257108" x2="54.21961505331056" y1="26.818313649435495" y2="22.513508569990535" /><path d="M 56.25429882871898 25.957352633546506 a86.0,86.0 0 0,1 42.26535254187918,-11.944610805530505" fill="none" id="id24" stroke="none" /><text fill="#e1ed5e" style="font-size:6.75px; font-family:Arial;" text-anchor="middle"><textPath startOffset="22.20632615414155" xlink:href="#id24">December</textPath></text><path d="M 89.3179101791058 81.91981866633112 l -24.470817857902023 -41.418564313945694 a69.10736322501029,69.10736322501029 0 0,0 1.0293813822613822,-0.5962841385765622 l 23.75423974317532 41.833652609912306" fill="red" stroke="none" /><path d="M 91.23893434514133 80.91482961587045 l -16.376093103939866 -35.67380264314467 a60.252982311805845,60.252982311805845 0 0,0 0.9463100467685104,-0.4245817337092599 l 15.759600938704583 35.95040470737046" fill="red" stroke="none" /></svg>