<?xml version="1.0" encoding="utf-8" ?>
<svg baseProfile="full" height="200mm" version="1.1" viewBox="0,0,200,200" width="200mm" xmlns="http://www.w3.org/2000/svg" xmlns:ev="http://www.w3.org/2001/xml-events" xmlns:xlink="http://www.w3.org/1999/xlink"><defs /><rect fill="#1a1a1a" height="200" width="200" x="0" y="0" /><text alignment-baseline="middle" fill="#e1ed5e" style="dominant-baseline: central; font-size:9.0px; font-family:Arial;" text-anchor="middle" x="100.0" y="100.0">2025</text><line stroke="#e1ed5e" stroke-width="0.3" x1="100.0" x2="100.0" y1="15.0" y2="10.0" /><path d="M 100.0 14.0 a86.0,86.0 0 0,1 42.46469731375804,11.215312516191453" fill="none" id="id49" stroke="none" /><text fill="#e1ed5e" style="font-size:6.75px; font-family:Arial;" text-anchor="middle"><textPath startOffset="22.20632615414155" xlink:href="#id49">January</textPath></text><path d="M 100.0 79.0 l 0.0 -6.778138601866061 a27.77813860186606,27.77813860186606 0 0,0 0.47815499310006027,0.004115630984531059 l -0.11667451382753187 6.777134347490089" fill="#ff5007" stroke="none" /><path d="M 100.72285384407766 79.0124445844662 l 0.3933981539981718 -11.422040050074477 a32.42881275605977,32.42881275605977 0 0,0 0.5577125248371797,0.024016274498948702 l -0.589951511224683 11.413576049051333" fill="#ff8f0d" stroke="none" /><path d="M 101.08401301168833 79.027996857942 l 0.06797380218093434 -1.3150642820199385 a22.31681984478802,22.31681984478802 0 0,0 0.3834645499623238,0.023131628849989757 l -0.09060040098287005 1.3136993837896447" fill="#ff0200" stroke="none" /><path d="M 101.80526077348638 79.07773832637324 l 0.5456336338630231 -6.323679012626694 a27.347175144671674,27.347175144671674 0 0,0 0.46864577045855005,0.044503562838914615 l -0.6544045314118174 6.313349905272601" fill="#ff4a06" stroke="none" /><path d="M 102.16513564639614 79.11191278185805 l 1.0839454713749364 -10.457334432360627 a31.51336203196434,31.51336203196434 0 0,0 0.5390785202968578,0.06057175292171477 l -1.2637906951815194 10.43712672596831" fill="#ff830c" stroke="none" /><path d="M 103.59715602781102 79.31037775812273 l 2.5381191062029727 -14.598400821714192 a35.81740041804561,35.81740041804561 0 0,0 0.6065163018127627,0.11083697740164525 l -2.7890305291186364 14.552548362961808" fill="#ffbc11" stroke="none" /><path d="M 104.307194497241 79.44645832069477 l 2.330761013815147 -11.122180266675993 a32.36377317566474,32.36377317566474 0 0,0 0.5442619986109946,0.11895459237372667 l -2.5218657365796693 11.080412176206396" fill="#ff8e0d" stroke="none" /><path d="M 105.36241919743992 79.69619591428918 l 2.546639402559037 -9.642376994919672 a30.97300387841208,30.97300387841208 0 0,0 0.5143024680706897,0.14057829241200376 l -2.7122397598534373 9.597112161681375" fill="#ff7c0b" stroke="none" /><path d="M 106.0581310904928 79.89281104454417 l 6.406505656001997 -21.263458622013776 a43.20761102168528,43.20761102168528 0 0,0 0.7102809207100641,0.22068773953497528 l -6.771571949422778 21.150030747596283" fill="#e7ff1a" stroke="none" /><path d="M 106.74666289553966 80.11325718540242 l 3.7623047468156856 -11.089925204285533 a32.71073772418114,32.71073772418114 0 0,0 0.5316554021728277,0.18548413049062754 l -3.952642153051787 11.023520220622698" fill="#ff930d" stroke="none" /><path d="M 109.73455568895987 81.39251694778311 l 10.271973766844665 -19.63475107509518 a43.15935231110549,43.15935231110549 0 0,0 0.6553130130012271,0.35004551661842614 l -10.608431826374204 19.455026831975" fill="#e7ff1a" stroke="none" /><line stroke="#e1ed5e" stroke-width="0.3" x1="143.23703022742887" x2="145.7803849466894" y1="26.81831364943548" y2="22.513508569990506" /><path d="M 143.74570117128098 25.957352633546492 a86.0,86.0 0 0,1 28.547481713284135,27.462654790039103" fill="none" id="id50" stroke="none" /><text fill="#e1ed5e" style="font-size:6.75px; font-family:Arial;" text-anchor="middle"><textPath startOffset="19.985693538727396" xlink:href="#id50">February</textPath></text><path d="M 110.99172775467656 82.1063720568725 l 2.4013688916043057 -3.909230874307833 a25.587881709700728,25.587881709700728 0 0,0 0.37331604224839865,0.2337704714078677 l -2.4683040862249674 3.867316061577021" fill="#ff3104" stroke="none" /><path d="M 111.60114157652 82.49532879139004 l 6.762210204562491 -10.203329171841814 a33.24072763522035,33.24072763522035 0 0,0 0.4742269501915596,0.3202001536728321 l -6.936841849160593 10.085417105870311" fill="#ff9a0e" stroke="none" /><path d="M 113.06298171725822 83.55741782278167 l 10.284276982238792 -12.944982475963268 a37.53296477799438,37.53296477799438 0 0,0 0.5023994686139466,0.4062387640780144 l -10.50557984941723 12.766037614621123" fill="#ffd213" stroke="none" /><path d="M 113.34407831869373 83.78471172551755 l 6.494072335943518 -7.8913846642481404 a31.219927955890768,31.219927955890768 0 0,0 0.4120175109359274,0.3450528164195519 l -6.628947383838563 7.778430690434769" fill="#ff7f0b" stroke="none" /><path d="M 114.16331599549186 84.49514656593476 l 7.91651314831081 -8.666358648813503 a32.7378427599471,32.7378427599471 0 0,0 0.4127963173522831,0.38364918881107213 l -8.06451734945794 8.52880487392779" fill="#ff930d" stroke="none" /><path d="M 115.19652480421416 85.50635884689758 l 8.792368251724344 -8.385695543436643 a33.150128773850234,33.150128773850234 0 0,0 0.39027595779919083,0.41631918057595696 l -8.935411531494 8.233106945982632" fill="#ff990e" stroke="none" /><path d="M 115.4437574822437 85.77008943001954 l 7.449728068011951 -6.864195083376968 a31.129936941066397,31.129936941066397 0 0,0 0.35970843647483597,0.3971990398015925 l -7.566780145102823 6.734943256305827" fill="#ff7e0b" stroke="none" /><path d="M 116.60985879189232 87.15038557335679 l 6.526756401165773 -5.0491882117952045 a29.251839232455396,29.251839232455396 0 0,0 0.30467052537305694,0.4009106983133869 l -6.612702866762944 4.9360927376007835" fill="#ff6409" stroke="none" /><path d="M 117.2510076193507 88.02491185347247 l 13.118299731874844 -9.106296808167688 a36.96917121874998,36.96917121874998 0 0,0 0.3583818468876719,0.5258811383104662 l -13.27310604443125 8.879137646586816" fill="#ffca12" stroke="none" /><line stroke="#e1ed5e" stroke-width="0.3" x1="172.23445277983987" x2="176.4835382374775" y1="55.19839476539836" y2="52.563006222186495" /><path d="M 173.08426987136738 54.67131705675599 a86.0,86.0 0 0,1 12.851231095245387,41.99856678651699" fill="none" id="id51" stroke="none" /><text fill="#e1ed5e" style="font-size:6.75px; font-family:Arial;" text-anchor="middle"><textPath startOffset="22.20632615414155" xlink:href="#id51">March</textPath></text><path d="M 118.73160827565052 90.50648371742162 l 8.680565338495859 -4.399466782044592 a30.731779002947484,30.731779002947484 0 0,0 0.23508345623581944,0.4739139027844688 l -8.755008807685087 4.249393290761174" fill="#ff780b" stroke="none" /><path d="M 119.196687751892 91.48605970444005 l 20.26588052805744 -8.988138947867517 a43.16963137545753,43.16963137545753 0 0,0 0.29542271815810184,0.6818763645295378 l -20.417593956058223 8.637963438751378" fill="#e7ff1a" stroke="none" /><path d="M 120.08093135843002 93.85539295169968 l 21.190659854250292 -6.48417523940687 a43.160518802452984,43.160518802452984 0 0,0 0.21126889573769808,0.7122936890335265 l -21.29913464709969 6.118452163626814" fill="#e7ff1a" stroke="none" /><path d="M 120.37134235888165 94.90015583598534 l 6.041616585616619 -1.5124827094144668 a27.22806028502258,27.22806028502258 0 0,0 0.10990697260433137,0.45563535702023494 l -6.066756358481769 1.4082621207348258" fill="#ff4806" stroke="none" /><path d="M 120.45610955862082 95.25157060432595 l 8.124501078014225 -1.885921642796935 a29.340516663218423,29.340516663218423 0 0,0 0.10996492141216842,0.49295118073650046 l -8.15576038642843 1.7457922925104705" fill="#ff6509" stroke="none" /><path d="M 120.6074358757038 95.95851677861258 l 15.469889499112083 -3.033919368934774 a36.764585241988954,36.764585241988954 0 0,0 0.11644617967262695,0.6220601480702384 l -15.519821402694571 2.7671811434019724" fill="#ffc812" stroke="none" /><path d="M 120.91429891909075 98.10471618934814 l 5.263186585892959 -0.4769575287832145 a26.284753686046926,26.284753686046926 0 0,0 0.03695575810752255,0.45095385441450037 l -5.2706168278199765 0.3862897571609454" fill="#ff3b05" stroke="none" /><path d="M 120.96714384426684 98.82574320788733 l 22.01089702266092 -1.2327117857027257 a43.04538877155025,43.04538877155025 0 0,0 0.03506434686036145,0.7401529426905634 l -22.02885497775478 0.8536477363891625" fill="#e9ff1a" stroke="none" /><line stroke="#e1ed5e" stroke-width="0.3" x1="184.98032266829074" x2="189.97916517819016" y1="98.17113171792111" y2="98.06355123074" /><path d="M 185.9800911702706 98.14961562048488 a86.0,86.0 0 0,1 -9.607161424134198,41.387399972396054" fill="none" id="id52" stroke="none" /><text fill="#e1ed5e" style="font-size:6.75px; font-family:Arial;" text-anchor="middle"><textPath startOffset="21.466115282336823" xlink:href="#id52">April</textPath></text><path d="M 120.9764740272857 100.99374915477107 l 10.512880632648727 0.49804205555778036 a31.52467125783152,31.52467125783152 0 0,0 -0.030344221104371273,0.5418164519132925 l -10.502750060656828 -0.6789302238064961" fill="#ff830c" stroke="none" /><path d="M 120.95626037817324 101.35467743843564 l 10.72337146912729 0.6931918735043647 a31.745753144307088,31.745753144307088 0 0,0 -0.03994438313642934,0.5450093719364204 l -10.709850527326523 -0.8776743819375553" fill="#ff860c" stroke="none" /><path d="M 120.92983693683757 101.71520430193887 l 10.470311215446063 0.8580440876614586 a31.50541082512561,31.50541082512561 0 0,0 -0.048946511791729715,0.5401206789746932 l -10.453990107377258 -1.0381461551847222" fill="#ff830c" stroke="none" /><path d="M 120.8583938346157 102.4346265915055 l 1.1856334326408307 0.13838911594884576 a22.193682614436845,22.193682614436845 0 0,0 -0.04755629628114876,0.37907047241804803 l -1.1830756271128338 -0.1587773426542887" fill="#ff0000" stroke="none" /><path d="M 120.81339534386255 102.79330883721812 l 10.424132688358192 1.3989943244561205 a31.51759133187624,31.51759133187624 0 0,0 -0.07679178429363749,0.5370815604944245 l -10.398506853047953 -1.5782213569309544" fill="#ff830c" stroke="none" /><path d="M 120.70491114924044 103.5080841355445 l 5.2126856873644485 0.8831981857644406 a26.286977502372388,26.286977502372388 0 0,0 -0.07942867822263025,0.44547820919009856 l -5.196710566802629 -0.9727951456877575" fill="#ff3b05" stroke="none" /><path d="M 120.64145759157962 103.86396538481128 l 5.183269540413229 0.9702790607419849 a26.27330300516573,26.27330300516573 0 0,0 -0.08703978338190786,0.44381398026985963 l -5.165799824055657 -1.0593567680797895" fill="#ff3b05" stroke="none" /><path d="M 120.5718875245553 104.21870165774334 l 12.763362739400659 2.6173981110298272 a34.02897545047743,34.02897545047743 0 0,0 -0.12261119708012869,0.5727986933890579 l -12.716417503596087 -2.8367106238350543" fill="#ffa40f" stroke="none" /><path d="M 120.41448212921028 104.9243191809786 l 10.214250803733316 2.4638504584047367 a31.50721078892719,31.50721078892719 0 0,0 -0.1317131726375427,0.5261286515197512 l -10.170326316800711 -2.6393069493218837" fill="#ff830c" stroke="none" /><path d="M 120.02730092923936 106.31721596034902 l 21.15103605855851 6.671675980659376 a43.17831343320203,43.17831343320203 0 0,0 -0.22968343802561633,0.7068929359732571 l -21.033060369516647 -7.034767816610429" fill="#e7ff1a" stroke="none" /><path d="M 119.26925614724726 108.34839909993367 l 5.753135203781089 2.492543998067308 a27.26987561721017,27.26987561721017 0 0,0 -0.19031635190340157,0.42911313149259983 l -5.709377767146415 -2.5912054660525956" fill="#ff4906" stroke="none" /><path d="M 118.97047184881838 109.00673069616215 l 6.178779425163956 2.933538119501529 a27.839807094019392,27.839807094019392 0 0,0 -0.2092582326793112,0.4311339395605418 l -6.1273679358699304 -3.0394610150273462" fill="#ff5107" stroke="none" /><path d="M 118.81262510543309 109.33194174019688 l 5.052573099253884 2.5063125181134986 a26.64004409218194,26.64004409218194 0 0,0 -0.2073119734522294,0.4090461913132661 l -5.008682456015386 -2.592912921129459" fill="#ff4006" stroke="none" /><line stroke="#e1ed5e" stroke-width="0.3" x1="174.80103733775053" x2="179.2010983576182" y1="140.37084112569926" y2="142.7455964860345" /><path d="M 175.68104954172406 140.8457921977663 a86.0,86.0 0 0,1 -30.038265399797805,32.042727171017184" fill="none" id="id53" stroke="none" /><text fill="#e1ed5e" style="font-size:6.75px; font-family:Arial;" text-anchor="middle"><textPath startOffset="22.206326154141568" xlink:href="#id53">May</textPath></text><path d="M 118.48025628344425 109.97397251340804 l 7.475449198561093 4.034572015033251 a29.49471082878971,29.49471082878971 0 0,0 -0.24497968404509254,0.4447092857012539 l -7.404893105064491 -4.16265181913231" fill="#ff6809" stroke="none" /><path d="M 118.30583269289576 110.29060199501025 l 7.876330597735357 4.42766984284036 a30.035532298764704,30.035532298764704 0 0,0 -0.25723002516350296,0.44850223085591384 l -7.798948576419474 -4.562591919554588" fill="#ff6f0a" stroke="none" /><path d="M 118.12598468904814 110.60418214915192 l 20.429674924132886 11.951902082007292 a44.66895817064271,44.66895817064271 0 0,0 -0.3939783483732839,0.6603303734658821 l -20.220915700061376 -12.301794549359277" fill="#d5ff1c" stroke="none" /><path d="M 117.75023020441432 111.22182372390056 l 8.874365367893155 5.610437874502525 a31.49911300189277,31.49911300189277 0 0,0 -0.29368443493844404,0.4558047649004064 l -8.77647606957766 -5.762364239324384" fill="#ff830c" stroke="none" /><path d="M 117.55443506779139 111.5257021239791 l 8.868181724548483 5.822575351684099 a31.608818540518776,31.608818540518776 0 0,0 -0.3025368746800142,0.4522515789044274 l -8.766641744457749 -5.9743638447943335" fill="#ff840c" stroke="none" /><path d="M 116.71984013943494 112.70617746262583 l 21.139845840473185 16.06514359835755 a47.551495645157544,47.551495645157544 0 0,0 -0.5008603175139789,0.6474294770370654 l -20.860178705741138 -16.42665106950787" fill="#b4ff20" stroke="none" /><path d="M 116.498646956653 112.99209946851258 l 8.624276010857761 6.791311558538942 a31.97725145000338,31.97725145000338 0 0,0 -0.3442611321220816,0.4295186948912138 l -8.506096966680825 -6.938758087008406" fill="#ff890c" stroke="none" /><path d="M 116.0416608686014 113.55231037782055 l 5.750360139748266 4.858017261208346 a28.527746903755727,28.527746903755727 0 0,0 -0.3201322496637648,0.3723861302687266 l -5.665885380513722 -4.9562804906386" fill="#ff5a08" stroke="none" /><path d="M 115.80600337817218 113.82643327865902 l 8.003561698503239 7.001182346247408 a31.633604944098423,31.633604944098423 0 0,0 -0.36204080962069657,0.4067566875771242 l -7.881862039234204 -7.1379132035653985" fill="#ff850c" stroke="none" /><path d="M 115.32070863581623 114.36230785411682 l 5.350653375900151 5.015938415909523 a28.334107289999828,28.334107289999828 0 0,0 -0.33662734006573714,0.35295242024055523 l -5.2635194844554505 -5.107297952732585" fill="#ff5808" stroke="none" /><path d="M 115.07121518719521 114.62390073753431 l 19.817176352749208 19.229001529156072 a48.612949469483496,48.612949469483496 0 0,0 -0.587891155308422,0.5955306365077254 l -19.48324457238525 -19.567272659644463" fill="#a8ff21" stroke="none" /><path d="M 114.55890576462653 115.13401014063108 l 3.827915108982997 3.9791250120994017 a26.52144636336308,26.52144636336308 0 0,0 -0.33172540856103394,0.31366707905048724 l -3.758853866031155 -4.04442672789581" fill="#ff3e05" stroke="none" /><path d="M 114.0293411484842 115.62618273729858 l 4.2930529842123 4.78169500065614 a27.426111655157733,27.426111655157733 0 0,0 -0.354002728293727,0.31236624852776373 l -4.210107903011986 -4.854884390956193" fill="#ff4b07" stroke="none" /><path d="M 113.48314897796784 116.09983520530334 l 6.747002520974064 8.056399057441887 a31.508454157999687,31.508454157999687 0 0,0 -0.41880717899418785,0.34464979606463625 l -6.607325213435185 -8.171343972363701" fill="#ff830c" stroke="none" /><path d="M 113.20401910651253 116.32954008644616 l 39.612057319537584 48.98862025933848 a84.0,84.0 0 0,0 -1.1321700291305956,0.899464343979496 l -38.762929797689644 -49.6632185173231" fill="#4dd2ff" stroke="none" /><path d="M 112.34349029814194 116.9893568818739 l 6.179293083770412 8.505067281794158 a31.51284131350694,31.51284131350694 0 0,0 -0.4415889533523692,0.3150619933030158 l -6.031976802569158 -8.610173536941392" fill="#ff830c" stroke="none" /><path d="M 111.45004920935366 117.60387380957326 l 7.380041720891256 11.346442341734626 a34.535389525846824,34.535389525846824 0 0,0 -0.5011219839011122,0.31983975989174135 l -7.183637934943214 -11.471796530450177" fill="#ffab0f" stroke="none" /><line stroke="#e1ed5e" stroke-width="0.3" x1="143.8653032363475" x2="146.44561519142675" y1="172.8068346515853" y2="177.08958963109032" /><path d="M 144.38136562736335 173.6633856474863 a86.0,86.0 0 0,1 -40.68145358897372,12.25698825130547" fill="none" id="id54" stroke="none" /><text fill="#e1ed5e" style="font-size:6.75px; font-family:Arial;" text-anchor="middle"><textPath startOffset="21.466115282336833" xlink:href="#id54">June</textPath></text><path d="M 110.5260780823613 118.17145234162733 l 11.602641639035014 20.029953030085156 a44.147792797398345,44.147792797398345 0 0,0 -0.6608530049318846,0.3752495834043004 l -11.25613986718193 -20.226705779284085" fill="#dcff1b" stroke="none" /><path d="M 107.93186726928326 119.44442032107085 l 3.996560144481797 9.797288916909192 a31.581085157480402,31.581085157480402 0 0,0 -0.5051152809583194,0.20099579468466267 l -3.8273237874816113 -9.864631555999924" fill="#ff840c" stroke="none" /><path d="M 105.88484417918355 120.15858648285463 l 2.9427577851461604 10.080443169557768 a31.501197925795047,31.501197925795047 0 0,0 -0.5218230917024733,0.14747241806509773 l -2.7688035253390813 -10.129604380961384" fill="#ff830c" stroke="none" /><path d="M 105.53697534728816 120.25689768951611 l 2.7708380931314243 10.137047800703549 a31.508914399313415,31.508914399313415 0 0,0 -0.5244127009140221,0.13850216062426168 l -2.5959349494059047 -10.183241310631393" fill="#ff830c" stroke="none" /><path d="M 104.13013068566511 120.58985236759428 l 6.60840104415242 32.94472069787362 a54.60097597126097,54.60097597126097 0 0,0 -0.9231007021804682,0.17691444657107466 l -6.040332727400248 -33.05359234279316" fill="#68ff28" stroke="none" /><path d="M 103.7750983002368 120.6578951692458 l 1.0094597495295368 5.523912763290476 a26.61539145584381,26.61539145584381 0 0,0 -0.4513856686510851,0.07847918438884359 l -0.9142251094064018 -5.540470526200326" fill="#ff4006" stroke="none" /><path d="M 103.41894727170886 120.7198165907248 l 1.6864116703732406 10.22014606534911 a31.358347837326278,31.358347837326278 0 0,0 -0.5333370106658268,0.08329627243639452 l -1.5102387960988966 -10.247660645132612" fill="#ff810b" stroke="none" /><path d="M 103.06178313531738 120.77559828337769 l 1.3128254559530819 8.90812088369745 a30.004339418100866,30.004339418100866 0 0,0 -0.5116045755213282,0.07090373241574702 l -1.1592922892449231 -8.929399181605799" fill="#ff6f0a" stroke="none" /><path d="M 100.90346689309514 120.98055641714683 l 0.5515423044940901 12.80806693008821 a33.81993671588381,33.81993671588381 0 0,0 -0.5818311830047628,0.020039442370118763 l -0.330990769814675 -12.815663170884422" fill="#ffa20e" stroke="none" /><line stroke="#e1ed5e" stroke-width="0.3" x1="102.19456741930631" x2="102.32365962044197" y1="184.97166512339345" y2="189.96999836594603" /><path d="M 102.22038585953345 185.97133177190398 a86.0,86.0 0 0,1 -42.740103519485714,-10.115201625700543" fill="none" id="id55" stroke="none" /><text fill="#e1ed5e" style="font-size:6.75px; font-family:Arial;" text-anchor="middle"><textPath startOffset="22.20632615414155" xlink:href="#id55">July</textPath></text><path d="M 100.54218724476979 120.99299961872073 l 0.1411857494871631 5.4665844940916175 a26.468407395842153,26.468407395842153 0 0,0 -0.4555594941523995,0.007842869828813633 l -0.04706656544209567 -5.468204841199591" fill="#ff3d05" stroke="none" /><path d="M 99.81925306533755 120.99922214144158 l -0.0904383978765586 10.507154717022678 a31.507543925735565,31.507543925735565 0 0,0 -0.5422903070113452,-0.00933601942646498 l 0.2712883947805717 -10.504041220317053" fill="#ff830c" stroke="none" /><path d="M 97.65516085044442 120.86867818915974 l -1.1740398695385674 10.448759448291819 a31.51451109769416,31.51451109769416 0 0,0 -0.5385568480430997,-0.06521173415378256 l 1.3537241406330565 -10.427002185412688" fill="#ff830c" stroke="none" /><path d="M 97.2962882734958 120.8252237178851 l -1.6243369708055995 12.511385913910196 a33.61638807589226,33.61638807589226 0 0,0 -0.5731936875021407,-0.07943942213501756 l 1.8394592494945712 -12.481571926282575" fill="#ff9f0e" stroke="none" /><path d="M 96.58105272829116 120.7198165907248 l -1.8676256936180424 11.318355843654093 a32.47140814089713,32.47140814089713 0 0,0 -0.5507012098633983,-0.09574646426232965 l 2.062175874953491 -11.284530800870757" fill="#ff900d" stroke="none" /><path d="M 95.86986931433489 120.58985236759428 l -2.0681978892076827 10.310542800390524 a31.515927697907017,31.515927697907017 0 0,0 -0.5309811581187425,-0.11127226431688345 l 2.2453705087558116 -10.273414555347099" fill="#ff830c" stroke="none" /><path d="M 95.51606077576429 120.51570834832081 l -2.2432081057965494 10.263520748534557 a31.505800338932332,31.505800338932332 0 0,0 -0.5288171331773889,-0.12035705783039884 l 2.419545388366801 -10.223386957126472" fill="#ff830c" stroke="none" /><path d="M 95.16358092515715 120.4354850818985 l -2.419371639610475 10.222652810630283 a31.505045912190898,31.505045912190898 0 0,0 -0.5266544229280455,-0.12943884371726405 l 2.5949793472817313 -10.179492708598989" fill="#ff830c" stroke="none" /><path d="M 93.76903079525671 120.05430185196036 l -3.1197154122898247 10.0407677384518 a31.51425893875613,31.51425893875613 0 0,0 -0.516651746566227,-0.16541557392609452 l 3.2920885039469923 -9.985579317866" fill="#ff830c" stroke="none" /><path d="M 93.42475214034765 119.94407469862007 l -3.291707861880428 9.984424752445648 a31.513043245664633,31.513043245664633 0 0,0 -0.5137080242975774,-0.1742776531572271 l 3.463085619115231 -9.926284112390297" fill="#ff830c" stroke="none" /><path d="M 91.40352486487194 119.15986991738527 l -4.736346727446305 10.55639500551558 a32.570240094097684,32.570240094097684 0 0,0 -0.5095412503071555,-0.23390539659587928 l 4.91735597352088 -10.473302538585626" fill="#ff910d" stroke="none" /><path d="M 91.07499286063937 119.00905698771935 l -4.957371322664469 10.558529815200272 a32.66439378147228,32.66439378147228 0 0,0 -0.5069005781349278,-0.24334308180217265 l 5.138384568799639 -10.471632456898536" fill="#ff920d" stroke="none" /><path d="M 90.7491055286396 118.85261126421891 l -6.084154963528769 12.399039763536328 a34.81134058221673,34.81134058221673 0 0,0 -0.5356737465460892,-0.2685979369227719 l 6.296682617757618 -12.292473985704254" fill="#ffaf10" stroke="none" /><line stroke="#e1ed5e" stroke-width="0.3" x1="58.666819895761336" x2="56.23545636021788" y1="174.27360380694188" y2="178.64263932499728" /><path d="M 58.180547188652646 175.14741091055294 a86.0,86.0 0 0,1 -31.652253787137756,-30.449443065178592" fill="none" id="id56" stroke="none" /><text fill="#e1ed5e" style="font-size:6.75px; font-family:Arial;" text-anchor="middle"><textPath startOffset="22.20632615414155" xlink:href="#id56">August</textPath></text><path d="M 89.4739219176387 118.17145234162733 l -5.794129285901803 10.002561576701973 a32.559548965139584,32.559548965139584 0 0,0 -0.4825513210845729,-0.28509982615149704 l 5.965448478014758 -9.901343178256727" fill="#ff910d" stroke="none" /><path d="M 89.1626897886671 117.98757091392108 l -5.421878549919565 8.99913567126273 a31.506246229737393,31.506246229737393 0 0,0 -0.4621228176577806,-0.28387357874339253 l 5.575980567509655 -8.904473625690958" fill="#ff830c" stroke="none" /><path d="M 88.8546689885994 117.79835938074946 l -2.8002565201991874 4.471825184358416 a26.27623512159762,26.27623512159762 0 0,0 -0.3812784292973602,-0.24334993314209188 l 2.8768167515434713 -4.422960822392519" fill="#ff3b05" stroke="none" /><path d="M 88.54995079064634 117.60387380957326 l -5.825224120143015 8.955988611796418 a31.6837712472948,31.6837712472948 0 0,0 -0.4546248531497734,-0.30130056273213135 l 5.97852367203275 -8.854390027972968" fill="#ff850c" stroke="none" /><path d="M 87.36589467227662 116.77436683061367 l -6.324635852483855 8.397251653966748 a31.512604530113908,31.512604530113908 0 0,0 -0.4304790919064613,-0.3300730111037028 l 6.468243672883803 -8.287139301035678" fill="#ff830c" stroke="none" /><path d="M 86.79598089348748 116.32954008644616 l -6.621105369069363 8.18838602615131 a31.530370459845617,31.530370459845617 0 0,0 -0.4190984882569071,-0.34488952375561416 l 6.761073985870958 -8.073201383538516" fill="#ff830c" stroke="none" /><path d="M 85.44109423537348 115.13401014063109 l -7.288415928164176 7.576322173468193 a31.512928441595285,31.512928441595285 0 0,0 -0.38768412207925385,-0.3794305101459902 l 7.417750002619224 -7.449741560399633" fill="#ff830c" stroke="none" /><path d="M 85.18274418774928 114.88116024355367 l -7.422813467724688 7.454826863412338 a31.52010472096591,31.52010472096591 0 0,0 -0.3811821949105066,-0.38613555096159097 l 7.550036287690728 -7.325950818470082" fill="#ff830c" stroke="none" /><path d="M 84.9287848128048 114.62390073753433 l -7.5476454417260435 7.323630932937827 a31.516773352882133,31.516773352882133 0 0,0 -0.37443945110563526,-0.3925982674950601 l 7.672591444210636 -7.192625548860266" fill="#ff830c" stroke="none" /><path d="M 84.67929136418377 114.36230785411682 l -4.110501477270019 3.8533653406436423 a26.63423879890733,26.63423879890733 0 0,0 -0.3106739268615177,-0.3371751887624223 l 4.176221812127267 -3.7820388970798757" fill="#ff4006" stroke="none" /><path d="M 84.43433777217949 114.09645910891817 l -7.930190093179644 7.18167969587936 a31.69880545519781,31.69880545519781 0 0,0 -0.3627870175178939,-0.40759506006012447 l 8.052635960345876 -7.044110466078372" fill="#ff850c" stroke="none" /><path d="M 84.19399662182784 113.82643327865904 l -7.913506323584293 6.922405655966497 a31.513956553037755,31.513956553037755 0 0,0 -0.3536428530849709,-0.41136653272458146 l 8.031491686240042 -6.785162024080385" fill="#ff830c" stroke="none" /><line stroke="#e1ed5e" stroke-width="0.3" x1="26.63291911575756" x2="22.317208475507996" y1="142.92168965132927" y2="145.44649492493687" /><path d="M 25.769776987707644 143.4266507060508 a86.0,86.0 0 0,1 -11.730757126820373,-40.83630448921669" fill="none" id="id57" stroke="none" /><text fill="#e1ed5e" style="font-size:6.75px; font-family:Arial;" text-anchor="middle"><textPath startOffset="21.46611528233685" xlink:href="#id57">September</textPath></text><line stroke="#e1ed5e" stroke-width="0.3" x1="15.007084014347285" x2="10.007500721073583" y1="101.09737516637583" y2="101.16192664675087" /><path d="M 14.007167355692545 101.11028546245083 a86.0,86.0 0 0,1 10.666146001902534,-42.60595125391555" fill="none" id="id58" stroke="none" /><text fill="#e1ed5e" style="font-size:6.75px; font-family:Arial;" text-anchor="middle"><textPath startOffset="22.20632615414155" xlink:href="#id58">October</textPath></text><line stroke="#e1ed5e" stroke-width="0.3" x1="26.266209847984243" x2="21.928928074336255" y1="57.711370442889674" y2="55.22380399835377" /><path d="M 25.398753493254645 57.213857153982495 a86.0,86.0 0 0,1 29.58750427330803,-30.492523968695096" fill="none" id="id59" stroke="none" /><text fill="#e1ed5e" style="font-size:6.75px; font-family:Arial;" text-anchor="middle"><textPath startOffset="21.46611528233685" xlink:href="#id59">November</textPath></text><line stroke="#e1ed5e" stroke-width="0.3" x1="56.762969772571076" x2="54.21961505331055" y1="26.818313649435495" y2="22.513508569990535" /><path d="M 56.25429882871897 25.957352633546506 a86.0,86.0 0 0,1 42.265352541879196,-11.944610805530505" fill="none" id="id60" stroke="none" /><text fill="#e1ed5e" style="font-size:6.75px; font-family:Arial;" text-anchor="middle"><textPath startOffset="22.20632615414155" xlink:href="#id60">December</textPath></text></svg>